<?xml version="1.0" standalone="no"?>
<!DOCTYPE svg PUBLIC "-//W3C//DTD SVG 1.1//EN"
  "http://www.w3.org/Graphics/SVG/1.1/DTD/svg11.dtd">
<svg width="82mm" height="82mm" viewBox="-122 -1 82 82" xmlns="http://www.w3.org/2000/svg" version="1.1">
	<title>svgOutput</title>
	<desc>made with tinkercad</desc>
<path d="M -117 76 L -117 65.53600311279297 L -117 64 L -121 64 L -121 57.34400177001953 L -121 53.24800109863281 L -121 52.5146484375 L -121 52.39805221557617 L -121 49.152000427246094 L -121 48 L -117 48 L -117 32.768001556396484 L -117 32 L -121 32 L -121 28.672000885009766 L -121 24.576000213623047 L -121 16.384000778198242 L -121 16 L -117 16 L -117 4 L -105 4 L -105 4.440892164675075e-17 L -98.30400085449219 4.440892164675075e-17 L -89 4.440892164675075e-17 L -89 4 L -73 4 L -73 4.440892164675075e-17 L -65.53600311279297 4.440892164675075e-17 L -57 4.440892164675075e-17 L -57 4 L -45 4 L -45 16 L -41 16 L -41 16.384000778198242 L -41 32 L -45 32 L -45 32.768001556396484 L -45 48 L -41 48 L -41 49.152000427246094 L -41 64 L -45 64 L -45 65.53600311279297 L -45 76 L -57 76 L -57 80 L -73 80 L -73 76 L -89 76 L -89 80 L -105 80 L -105 76 L -117 76 M -115.3427505493164 53.871299743652344 L -115.34270477294922 53.871360778808594 L -115.33294677734375 53.88425064086914 L -115.15435028076172 54.03150177001953 L -115.14199829101562 54.04199981689453 L -114.92900085449219 54.159000396728516 L -114.70099639892578 54.244998931884766 L -114.68800354003906 54.24739456176758 L -114.46199798583984 54.28900146484375 L -114.21900177001953 54.29800033569336 L -113.97799682617188 54.26300048828125 L -113.74500274658203 54.19300079345703 L -113.73760223388672 54.18960189819336 L -113.46495056152344 54.04615020751953 L -113.45155334472656 54.03704833984375 L -113.3290023803711 53.94300079345703 L -113.15799713134766 53.77000045776367 L -113.01499938964844 53.573001861572266 L -113.0123291015625 53.56747817993164 L -112.91429901123047 53.36494827270508 L -112.90750122070312 53.350250244140625 L -112.88738250732422 53.24800109863281 L -112.80394744873047 52.823951721191406 L -112.80175018310547 52.81610107421875 L -112.80000305175781 52.79999923706055 L -112.80175018310547 52.78390121459961 L -112.8434829711914 52.53084182739258 L -112.87680053710938 52.32884979248047 L -113.00599670410156 52.0495491027832 L -113.01119995117188 52.034149169921875 L -113.01499938964844 52.027000427246094 L -113.21099853515625 51.768001556396484 L -113.38152313232422 51.623023986816406 L -113.45800018310547 51.55799865722656 L -113.73065185546875 51.41455078125 L -113.73760223388672 51.410400390625 L -113.75016021728516 51.40541076660156 L -113.75270080566406 51.40439987182617 L -113.7646484375 51.402198791503906 L -114.21495056152344 51.30244827270508 L -114.38504791259766 51.30244827270508 L -114.68800354003906 51.35262680053711 L -114.68904876708984 51.35279846191406 L -114.70099639892578 51.35499954223633 L -114.92900085449219 51.441001892089844 L -115.12005615234375 51.54594421386719 L -115.14199829101562 51.55799865722656 L -115.34506225585938 51.73064422607422 L -115.37664794921875 51.75749969482422 L -115.38604736328125 51.76525115966797 L -115.52950286865234 51.94670104980469 L -115.54000091552734 51.95899963378906 L -115.66100311279297 52.16999816894531 L -115.75980377197266 52.46260070800781 L -115.7656478881836 52.481998443603516 L -115.79889678955078 52.787899017333984 L -115.80000305175781 52.79999923706055 L -115.79145050048828 52.95389938354492 L -115.78970336914062 52.970001220703125 L -115.76499938964844 53.12200164794922 L -115.72480773925781 53.24800109863281 L -115.69100189208984 53.354000091552734 L -115.61429595947266 53.51246643066406 L -115.58499908447266 53.573001861572266 L -115.49855041503906 53.70124816894531 L -115.3427505493164 53.871299743652344 M -115.26104736328125 26.049999237060547 L -115.27100372314453 26.05699920654297 L -115.38310241699219 26.162450790405273 L -115.52655029296875 26.343900680541992 L -115.54000091552734 26.358999252319336 L -115.54399108886719 26.365964889526367 L -115.66100311279297 26.56999969482422 L -115.66400146484375 26.577550888061523 L -115.6796875 26.624000549316406 L -115.76280212402344 26.870149612426758 L -115.7657470703125 26.884000778198242 L -115.78071594238281 27.021684646606445 L -115.79900360107422 27.189899444580078 L -115.79045104980469 27.343799591064453 L -115.79100036621094 27.36199951171875 L -115.74299621582031 27.60099983215332 L -115.66100311279297 27.829999923706055 L -115.54000091552734 28.041000366210938 L -115.38899993896484 28.23200035095215 L -115.14199829101562 28.441999435424805 L -114.92900085449219 28.55900001525879 L -114.70099639892578 28.645000457763672 L -114.68800354003906 28.64739418029785 L -114.5543441772461 28.672000885009766 L -114.46199798583984 28.68899917602539 L -114.21900177001953 28.697999954223633 L -114.03997039794922 28.672000885009766 L -113.97799682617188 28.663000106811523 L -113.74500274658203 28.593000411987305 L -113.59700012207031 28.524999618530273 L -113.39399719238281 28.392000198364258 L -113.21099853515625 28.23200035095215 L -113.11125183105469 28.114200592041016 L -113.10144805908203 28.10124969482422 L -113.09559631347656 28.088350296020508 L -112.87995147705078 27.68079948425293 L -112.83815002441406 27.53165054321289 L -112.83536529541016 27.51449203491211 L -112.8134536743164 27.379650115966797 L -112.80899810791016 27.36199951171875 L -112.80899810791016 27.038000106811523 L -112.83370208740234 26.88599967956543 L -112.83609771728516 26.87405014038086 L -112.9205322265625 26.624000549316406 L -112.93489837646484 26.581449508666992 L -112.93900299072266 26.56999969482422 L -113.01499938964844 26.427000045776367 L -113.15084838867188 26.239849090576172 L -113.16065216064453 26.226900100708008 L -113.38484954833984 26.016000747680664 L -113.39720153808594 26.00550079345703 L -113.73065185546875 25.814550399780273 L -113.74500274658203 25.80699920654297 L -113.97799682617188 25.73699951171875 L -114.21900177001953 25.70199966430664 L -114.46199798583984 25.711000442504883 L -114.68800354003906 25.752607345581055 L -114.70099639892578 25.7549991607666 L -114.9176025390625 25.836700439453125 L -114.92530059814453 25.83930015563965 L -114.93614959716797 25.84480094909668 L -115.08769989013672 25.92804718017578 L -115.13849639892578 25.955949783325195 L -115.26104736328125 26.049999237060547 M -61.5119514465332 52.30289840698242 L -61.518001556396484 52.31344985961914 L -61.520999908447266 52.32099914550781 L -61.577999114990234 52.55799865722656 L -61.599998474121094 52.79999923706055 L -61.5791015625 53.02989959716797 L -61.57735061645508 53.04600143432617 L -61.52876663208008 53.24800109863281 L -61.52320098876953 53.271148681640625 L -61.514198303222656 53.293701171875 L -61.439998626708984 53.4541015625 L -61.3849983215332 53.573001861572266 L -61.249149322509766 53.76015090942383 L -61.23640060424805 53.775848388671875 L -61.11127471923828 53.902435302734375 L -61.073951721191406 53.94020080566406 L -60.95140075683594 54.03424835205078 L -60.94200134277344 54.04199981689453 L -60.86477279663086 54.08442306518555 L -60.729000091552734 54.159000396728516 L -60.362300872802734 54.273948669433594 L -60.35089874267578 54.27825164794922 L -60.34299850463867 54.279998779296875 L -60.099998474121094 54.29800033569336 L -59.856998443603516 54.279998779296875 L -59.69900131225586 54.244998931884766 L -59.47100067138672 54.159000396728516 L -59.257999420166016 54.04199981689453 L -59.13544845581055 53.94794845581055 L -59.12604904174805 53.94020080566406 L -58.939056396484375 53.743141174316406 L -58.91419982910156 53.716949462890625 L -58.90599822998047 53.70800018310547 L -58.783451080322266 53.512298583984375 L -58.778900146484375 53.505550384521484 L -58.772098541259766 53.490848541259766 L -58.67900085449219 53.27899932861328 L -58.67154312133789 53.24800109863281 L -58.62200164794922 53.04199981689453 L -58.599998474121094 52.79999923706055 L -58.62200164794922 52.55799865722656 L -58.67900085449219 52.32099914550781 L -58.814998626708984 52.027000427246094 L -58.91862487792969 51.88424301147461 L -58.95800018310547 51.83000183105469 L -59.12900161743164 51.65700149536133 L -59.391998291015625 51.49894714355469 L -59.524200439453125 51.419498443603516 L -59.5306510925293 51.41455078125 L -59.54499816894531 51.40700149536133 L -59.856998443603516 51.31999969482422 L -60.099998474121094 51.301998138427734 L -60.34299850463867 51.31999969482422 L -60.654998779296875 51.40700149536133 L -60.94200134277344 51.55799865722656 L -61.18899917602539 51.768001556396484 L -61.24801254272461 51.84264373779297 L -61.34000015258789 51.95899963378906 L -61.439998626708984 52.159000396728516 L -61.5119514465332 52.30289840698242 M -59.856998443603516 28.68000030517578 L -59.820884704589844 28.672000885009766 L -59.69900131225586 28.645000457763672 L -59.47100067138672 28.55900001525879 L -59.391998291015625 28.515605926513672 L -59.257999420166016 28.441999435424805 L -59.12900161743164 28.343000411987305 L -58.90599822998047 28.107999801635742 L -58.777000427246094 27.902000427246094 L -58.67900085449219 27.679000854492188 L -58.62200164794922 27.441999435424805 L -58.599998474121094 27.200000762939453 L -58.6349983215332 26.878000259399414 L -58.67900085449219 26.72100067138672 L -58.72162628173828 26.624000549316406 L -58.777000427246094 26.49799919128418 L -58.90599822998047 26.29199981689453 L -59.01100158691406 26.167999267578125 L -59.18484878540039 26.016000747680664 L -59.197200775146484 26.00550079345703 L -59.460350036621094 25.84684944152832 L -59.47100067138672 25.840999603271484 L -59.69900131225586 25.7549991607666 L -59.856998443603516 25.719999313354492 L -60.099998474121094 25.70199966430664 L -60.34299850463867 25.719999313354492 L -60.493099212646484 25.753250122070312 L -60.50669860839844 25.757150650024414 L -60.63874435424805 25.80961799621582 L -60.79359817504883 25.87114906311035 L -60.92565155029297 25.950000762939453 L -60.94200134277344 25.95800018310547 L -61.130001068115234 26.113000869750977 L -61.34000015258789 26.358999252319336 L -61.439998626708984 26.53338050842285 L -61.46099853515625 26.56999969482422 L -61.564998626708984 26.878000259399414 L -61.566749572753906 26.894100189208984 L -61.57892990112305 27.120866775512695 L -61.59144973754883 27.353900909423828 L -61.590999603271484 27.36199951171875 L -61.467498779296875 27.80660057067871 L -61.46620178222656 27.814599990844727 L -61.46099853515625 27.829999923706055 L -61.439998626708984 27.866619110107422 L -61.378936767578125 27.973098754882812 L -61.34000015258789 28.041000366210938 L -61.14506149291992 28.269357681274414 L -61.140499114990234 28.274700164794922 L -61.13294982910156 28.284250259399414 L -60.954349517822266 28.431499481201172 L -60.94200134277344 28.441999435424805 L -60.654998779296875 28.593000411987305 L -60.37168884277344 28.672000885009766 L -60.34299850463867 28.68000030517578 L -60.099998474121094 28.697999954223633 L -59.856998443603516 28.68000030517578 M -111.61699676513672 48.900001525878906 L -111.51599884033203 48.724998474121094 L -111.4469985961914 48.534000396728516 L -111.40699768066406 48.334999084472656 L -111.40699768066406 48.064998626708984 L -111.4469985961914 47.86600112915039 L -111.51599884033203 47.67499923706055 L -111.61699676513672 47.5 L -111.74299621582031 47.34000015258789 L -111.88739776611328 47.21269989013672 L -111.89769744873047 47.203948974609375 L -112.06380462646484 47.104000091552734 L -112.11714935302734 47.0718994140625 L -112.1290512084961 47.06560134887695 L -112.3576431274414 46.993900299072266 L -112.43495178222656 46.96965026855469 L -112.4447021484375 46.96675109863281 L -112.6365966796875 46.95344924926758 L -112.64659881591797 46.95199966430664 L -112.65675354003906 46.95235061645508 L -112.73157501220703 46.95753479003906 L -112.84864807128906 46.96564865112305 L -113.01799774169922 47.009490966796875 L -113.03579711914062 47.01409912109375 L -113.0457534790039 47.01594924926758 L -113.22339630126953 47.090999603271484 L -113.23600006103516 47.09600067138672 L -113.248291015625 47.104000091552734 L -113.40499877929688 47.20600128173828 L -113.54940032958984 47.33330154418945 L -113.55919647216797 47.34260177612305 L -113.71499633789062 47.54779815673828 L -113.72100067138672 47.555999755859375 L -113.78399658203125 47.67499923706055 L -113.83058166503906 47.80394744873047 L -113.85299682617188 47.86600112915039 L -113.89385223388672 48.11869812011719 L -113.8958511352539 48.1286506652832 L -113.8958511352539 48.14215087890625 L -113.89299774169922 48.334999084472656 L -113.85299682617188 48.534000396728516 L -113.78399658203125 48.724998474121094 L -113.68299865722656 48.900001525878906 L -113.55699920654297 49.060001373291016 L -113.45264434814453 49.152000427246094 L -113.40499877929688 49.194000244140625 L -113.23600006103516 49.30400085449219 L -113.04900360107422 49.382999420166016 L -112.86184692382812 49.43144989013672 L -112.84864807128906 49.434349060058594 L -112.59214782714844 49.44765090942383 L -112.58200073242188 49.448001861572266 L -112.31600189208984 49.40399932861328 L -112.19345092773438 49.36315155029297 L -112.18084716796875 49.358150482177734 L -112.06400299072266 49.30400085449219 L -111.8949966430664 49.194000244140625 L -111.84735870361328 49.152000427246094 L -111.74299621582031 49.060001373291016 L -111.61699676513672 48.900001525878906 z" fill="none" stroke="rgb(0,0,255)" stroke-width="0.01mm" />
</svg>