<?xml version="1.0" standalone="no"?>
<!DOCTYPE svg PUBLIC "-//W3C//DTD SVG 1.1//EN"
  "http://www.w3.org/Graphics/SVG/1.1/DTD/svg11.dtd">
<svg width="82mm" height="82mm" viewBox="-122 -82 82 82" xmlns="http://www.w3.org/2000/svg" version="1.1">
	<title>svgOutput</title>
	<desc>made with tinkercad</desc>
<path d="M -57 -81 L -41 -81 L -41 -65.53600311279297 L -41 -65 L -45 -65 L -45 -49 L -41 -49 L -41 -33 L -45 -33 L -45 -17 L -41 -17 L -41 -1 L -45 -1 L -57 -1 L -57 -5 L -65.53600311279297 -5 L -73 -5 L -73 -1 L -81.91999816894531 -1 L -89 -1 L -89 -5 L -98.30400085449219 -5 L -105 -5 L -105 -1 L -117 -1 L -121 -1 L -121 -17 L -117 -17 L -117 -32.768001556396484 L -117 -33 L -121 -33 L -121 -34.54999923706055 L -121 -38.79999923706055 L -121 -49 L -117 -49 L -117 -65 L -121 -65 L -121 -65.53600311279297 L -121 -81 L -105 -81 L -105 -77 L -98.30400085449219 -77 L -89 -77 L -89 -81 L -81.91999816894531 -81 L -77.8239974975586 -81 L -73.72799682617188 -81 L -73 -81 L -73 -77 L -65.53600311279297 -77 L -57 -77 L -57 -81 M -77.86000061035156 -70.69200134277344 L -77.8239974975586 -70.70862579345703 L -77.66300201416016 -70.78299713134766 L -77.47799682617188 -70.8949966430664 L -77.30500030517578 -71.0260009765625 L -77.14800262451172 -71.17500305175781 L -77.00800323486328 -71.33999633789062 L -76.88600158691406 -71.51899719238281 L -76.80086517333984 -71.68000030517578 L -76.78500366210938 -71.70999908447266 L -76.70500183105469 -71.91100311279297 L -76.64700317382812 -72.12000274658203 L -76.61199951171875 -72.33399963378906 L -76.5999984741211 -72.55000305175781 L -76.61199951171875 -72.76599884033203 L -76.64700317382812 -72.9800033569336 L -76.70500183105469 -73.18900299072266 L -76.78500366210938 -73.38999938964844 L -76.88600158691406 -73.58100128173828 L -76.98619079589844 -73.72799682617188 L -77.00800323486328 -73.76000213623047 L -77.14800262451172 -73.92500305175781 L -77.30500030517578 -74.0739974975586 L -77.47799682617188 -74.20500183105469 L -77.66300201416016 -74.31700134277344 L -77.8239974975586 -74.39137268066406 L -77.86000061035156 -74.40799713134766 L -78.06500244140625 -74.47699737548828 L -78.2760009765625 -74.52400207519531 L -78.49199676513672 -74.5469970703125 L -78.70800018310547 -74.5469970703125 L -78.92400360107422 -74.52400207519531 L -79.13500213623047 -74.47699737548828 L -79.33999633789062 -74.40799713134766 L -79.53700256347656 -74.31700134277344 L -79.72200012207031 -74.20500183105469 L -79.8949966430664 -74.0739974975586 L -80.052001953125 -73.92500305175781 L -80.19200134277344 -73.76000213623047 L -80.21381378173828 -73.72799682617188 L -80.31400299072266 -73.58100128173828 L -80.41500091552734 -73.38999938964844 L -80.49500274658203 -73.18900299072266 L -80.5530014038086 -72.9800033569336 L -80.58799743652344 -72.76599884033203 L -80.5999984741211 -72.55000305175781 L -80.58799743652344 -72.33399963378906 L -80.5530014038086 -72.12000274658203 L -80.49500274658203 -71.91100311279297 L -80.41500091552734 -71.70999908447266 L -80.39913940429688 -71.68000030517578 L -80.31400299072266 -71.51899719238281 L -80.19200134277344 -71.33999633789062 L -80.052001953125 -71.17500305175781 L -79.8949966430664 -71.0260009765625 L -79.72200012207031 -70.8949966430664 L -79.53700256347656 -70.78299713134766 L -79.33999633789062 -70.69200134277344 L -79.13500213623047 -70.62300109863281 L -78.92400360107422 -70.57599639892578 L -78.70800018310547 -70.5530014038086 L -78.49199676513672 -70.5530014038086 L -78.2760009765625 -70.57599639892578 L -78.06500244140625 -70.62300109863281 L -77.86000061035156 -70.69200134277344 M -77.86000061035156 -27.54199981689453 L -77.8239974975586 -27.558629989624023 L -77.66300201416016 -27.632999420166016 L -77.47799682617188 -27.7450008392334 L -77.30500030517578 -27.875999450683594 L -77.14800262451172 -28.024999618530273 L -77.00800323486328 -28.190000534057617 L -76.88600158691406 -28.368999481201172 L -76.78500366210938 -28.559999465942383 L -76.74042510986328 -28.672000885009766 L -76.70500183105469 -28.76099967956543 L -76.64700317382812 -28.969999313354492 L -76.61199951171875 -29.18400001525879 L -76.5999984741211 -29.399999618530273 L -76.61199951171875 -29.615999221801758 L -76.64700317382812 -29.829999923706055 L -76.70500183105469 -30.038999557495117 L -76.78500366210938 -30.239999771118164 L -76.88600158691406 -30.430999755859375 L -77.00800323486328 -30.610000610351562 L -77.14800262451172 -30.774999618530273 L -77.30500030517578 -30.923999786376953 L -77.47799682617188 -31.05500030517578 L -77.66300201416016 -31.16699981689453 L -77.8239974975586 -31.241371154785156 L -77.86000061035156 -31.257999420166016 L -78.06500244140625 -31.32699966430664 L -78.2760009765625 -31.374000549316406 L -78.49199676513672 -31.39699935913086 L -78.70800018310547 -31.39699935913086 L -78.92400360107422 -31.374000549316406 L -79.13500213623047 -31.32699966430664 L -79.33999633789062 -31.257999420166016 L -79.53700256347656 -31.16699981689453 L -79.72200012207031 -31.05500030517578 L -79.8949966430664 -30.923999786376953 L -80.052001953125 -30.774999618530273 L -80.09866333007812 -30.719999313354492 L -80.19200134277344 -30.610000610351562 L -80.31400299072266 -30.430999755859375 L -80.41500091552734 -30.239999771118164 L -80.49500274658203 -30.038999557495117 L -80.5530014038086 -29.829999923706055 L -80.58799743652344 -29.615999221801758 L -80.5999984741211 -29.399999618530273 L -80.58799743652344 -29.18400001525879 L -80.5530014038086 -28.969999313354492 L -80.49500274658203 -28.76099967956543 L -80.45957946777344 -28.672000885009766 L -80.41500091552734 -28.559999465942383 L -80.31400299072266 -28.368999481201172 L -80.19200134277344 -28.190000534057617 L -80.052001953125 -28.024999618530273 L -79.8949966430664 -27.875999450683594 L -79.72200012207031 -27.7450008392334 L -79.53700256347656 -27.632999420166016 L -79.33999633789062 -27.54199981689453 L -79.13500213623047 -27.472999572753906 L -78.92400360107422 -27.426000595092773 L -78.70800018310547 -27.402999877929688 L -78.49199676513672 -27.402999877929688 L -78.2760009765625 -27.426000595092773 L -78.06500244140625 -27.472999572753906 L -77.86000061035156 -27.54199981689453 M -71.44999694824219 -38.79999923706055 L -82.80000305175781 -38.79999923706055 L -82.80000305175781 -34.54999923706055 L -71.44999694824219 -34.54999923706055 L -71.44999694824219 -38.79999923706055 z" fill="none" stroke="rgb(0,0,255)" stroke-width="0.01mm" />
</svg>