<?xml version="1.0" standalone="no"?>
<!DOCTYPE svg PUBLIC "-//W3C//DTD SVG 1.1//EN"
  "http://www.w3.org/Graphics/SVG/1.1/DTD/svg11.dtd">
<svg width="82mm" height="82mm" viewBox="40 -82 82 82" xmlns="http://www.w3.org/2000/svg" version="1.1">
	<title>svgOutput</title>
	<desc>made with tinkercad</desc>
<path d="M 41 -65 L 45 -65 L 45 -65.53600311279297 L 45 -81 L 57 -81 L 57 -77 L 65.53600311279297 -77 L 73 -77 L 73 -81 L 89 -81 L 89 -77 L 105 -77 L 105 -81 L 117 -81 L 117 -77 L 117 -66.25 L 117 -65.53600311279297 L 117 -65 L 121 -65 L 121 -49.152000427246094 L 121 -49 L 117 -49 L 117 -33 L 121 -33 L 121 -32.768001556396484 L 121 -17 L 117 -17 L 117 -12 L 117 -1 L 105 -1 L 105 -5 L 89 -5 L 89 -1 L 73 -1 L 73 -5 L 65.53600311279297 -5 L 57 -5 L 57 -1 L 45 -1 L 45 -5 L 45 -17 L 41 -17 L 41 -33 L 45 -33 L 45 -49 L 41 -49 L 41 -65 M 108.12200164794922 -64.29199981689453 L 108.0999984741211 -64.05000305175781 L 108.10900115966797 -63.88800048828125 L 108.17900085449219 -63.57099914550781 L 108.2154769897461 -63.487998962402344 L 108.2770004272461 -63.347999572753906 L 108.45800018310547 -63.08000183105469 L 108.62899780273438 -62.90700149536133 L 108.89700317382812 -62.724998474121094 L 109.18389892578125 -62.611000061035156 L 109.20294952392578 -62.60409927368164 L 109.50695037841797 -62.553749084472656 L 109.51899719238281 -62.551998138427734 L 109.76200103759766 -62.56100082397461 L 110.0009994506836 -62.60499954223633 L 110.3030014038086 -62.724998474121094 L 110.50599670410156 -62.858001708984375 L 110.59200286865234 -62.933189392089844 L 110.67984771728516 -63.0099983215332 L 110.691650390625 -63.02109909057617 L 110.87785339355469 -63.26715087890625 L 110.88500213623047 -63.277000427246094 L 110.99099731445312 -63.49599838256836 L 111.06500244140625 -63.72800064086914 L 111.0999984741211 -64.05000305175781 L 111.0780029296875 -64.29199981689453 L 111.02100372314453 -64.52899932861328 L 110.9229965209961 -64.75199890136719 L 110.8586196899414 -64.85480499267578 L 110.79399871826172 -64.95800018310547 L 110.69425201416016 -65.07579803466797 L 110.59200286865234 -65.16273498535156 L 110.45960235595703 -65.27529907226562 L 110.44844818115234 -65.28704833984375 L 110.44200134277344 -65.29199981689453 L 110.22899627685547 -65.40899658203125 L 110.0009994506836 -65.49500274658203 L 109.7782974243164 -65.53600311279297 L 109.76200103759766 -65.53900146484375 L 109.51899719238281 -65.5479965209961 L 109.43637084960938 -65.53600311279297 L 109.27799987792969 -65.51300048828125 L 109.04499816894531 -65.44300079345703 L 108.97832489013672 -65.41236114501953 L 108.89700317382812 -65.375 L 108.70414733886719 -65.24864959716797 L 108.69719696044922 -65.24449920654297 L 108.68779754638672 -65.23674774169922 L 108.55506134033203 -65.12068939208984 L 108.54399871826172 -65.11102294921875 L 108.51394653320312 -65.08474731445312 L 108.41419982910156 -64.96694946289062 L 108.40599822998047 -64.95800018310547 L 108.2770004272461 -64.75199890136719 L 108.17900085449219 -64.52899932861328 L 108.12200164794922 -64.29199981689453 M 99.8541488647461 -65.50150299072266 L 99.65361785888672 -65.53600311279297 L 99.58910369873047 -65.5470962524414 L 99.57695007324219 -65.5479965209961 L 99.36094665527344 -65.53600311279297 L 99.26914978027344 -65.53089904785156 L 99.25700378417969 -65.52999877929688 L 99.0989990234375 -65.49500274658203 L 98.87100219726562 -65.40899658203125 L 98.65799713134766 -65.29199981689453 L 98.65155029296875 -65.28704833984375 L 98.47918701171875 -65.14051055908203 L 98.41690063476562 -65.0875473022461 L 98.31714630126953 -64.9697494506836 L 98.30599975585938 -64.95800018310547 L 98.30400085449219 -64.95480346679688 L 98.177001953125 -64.75199890136719 L 98.0790023803711 -64.52899932861328 L 98.04944610595703 -64.40611267089844 L 98.02484893798828 -64.30384826660156 L 98.02134704589844 -64.28800201416016 L 98.01944732666016 -63.8661994934082 L 98.01899719238281 -63.85810089111328 L 98.020751953125 -63.84199905395508 L 98.07679748535156 -63.57884979248047 L 98.08049774169922 -63.5672492980957 L 98.20970153808594 -63.28794860839844 L 98.21955108642578 -63.27024841308594 L 98.30400085449219 -63.15865707397461 L 98.40574645996094 -63.024200439453125 L 98.4155502319336 -63.013999938964844 L 98.5974349975586 -62.85935974121094 L 98.65019989013672 -62.81449890136719 L 98.7822494506836 -62.73564910888672 L 98.80069732666016 -62.72330093383789 L 99.08760070800781 -62.60929870605469 L 99.0989990234375 -62.60499954223633 L 99.33799743652344 -62.56100082397461 L 99.58100128173828 -62.551998138427734 L 99.74299621582031 -62.56999969482422 L 99.97799682617188 -62.63100051879883 L 100.2030029296875 -62.724998474121094 L 100.33505249023438 -62.80384826660156 L 100.34844970703125 -62.812950134277344 L 100.47100067138672 -62.90700149536133 L 100.64199829101562 -63.08000183105469 L 100.822998046875 -63.347999572753906 L 100.884521484375 -63.487998962402344 L 100.9209976196289 -63.57099914550781 L 100.92320251464844 -63.57884979248047 L 100.98970031738281 -63.880001068115234 L 100.99144744873047 -63.89609909057617 L 101 -64.05000305175781 L 100.97799682617188 -64.29199981689453 L 100.9209976196289 -64.52899932861328 L 100.822998046875 -64.75199890136719 L 100.69400024414062 -64.95800018310547 L 100.58899688720703 -65.08200073242188 L 100.40599822998047 -65.24199676513672 L 100.35199737548828 -65.27738189697266 L 100.2030029296875 -65.375 L 99.87715148925781 -65.4937515258789 L 99.8697509765625 -65.49714660644531 L 99.8541488647461 -65.50150299072266 M 103.05000305175781 -66.25 L 103.05000305175781 -65.53600311279297 L 103.05000305175781 -63.25 L 106.05000305175781 -63.25 L 106.05000305175781 -65.53600311279297 L 106.05000305175781 -65.67648315429688 L 106.05000305175781 -66.22238159179688 L 106.05000305175781 -66.25 L 103.05000305175781 -66.25 M 73 -19 L 73 -12 L 89 -12 L 89 -17 L 89 -19 L 73 -19 z" fill="none" stroke="rgb(0,0,255)" stroke-width="0.01mm" />
</svg>