<?xml version="1.0" standalone="no"?>
<!DOCTYPE svg PUBLIC "-//W3C//DTD SVG 1.1//EN"
  "http://www.w3.org/Graphics/SVG/1.1/DTD/svg11.dtd">
<svg width="82mm" height="82mm" viewBox="40 -1 82 82" xmlns="http://www.w3.org/2000/svg" version="1.1">
	<title>svgOutput</title>
	<desc>made with tinkercad</desc>
<path d="M 45 80 L 45 76 L 45 65.53600311279297 L 45 64 L 41 64 L 41 49.152000427246094 L 41 48 L 45 48 L 45 32.768001556396484 L 45 32 L 41 32 L 41 16 L 45 16 L 45 4 L 45 4.440892164675075e-17 L 57 4.440892164675075e-17 L 57 4 L 65.53600311279297 4 L 73 4 L 73 4.440892164675075e-17 L 81.91999816894531 4.440892164675075e-17 L 89 4.440892164675075e-17 L 89 4 L 98.30400085449219 4 L 105 4 L 105 4.440892164675075e-17 L 117 4.440892164675075e-17 L 117 16 L 121 16 L 121 32 L 117 32 L 117 32.768001556396484 L 117 48 L 121 48 L 121 49.152000427246094 L 121 64 L 117 64 L 117 65.53600311279297 L 117 80 L 105 80 L 105 76 L 98.30400085449219 76 L 89 76 L 89 80 L 73 80 L 73 76 L 65.53600311279297 76 L 57 76 L 57 80 L 45 80 M 105.27400207519531 43.6879997253418 L 105.43900299072266 43.827999114990234 L 105.62999725341797 43.92900085449219 L 105.83799743652344 43.98699951171875 L 105.94059753417969 43.9984016418457 L 105.95140075683594 43.999000549316406 L 106.05400085449219 43.999000549316406 L 106.26799774169922 43.9640007019043 L 106.46800231933594 43.88399887084961 L 106.49600219726562 43.86491775512695 L 106.64700317382812 43.762001037597656 L 106.7959976196289 43.60499954223633 L 106.90799713134766 43.41999816894531 L 106.97699737548828 43.21500015258789 L 107 43 L 107 40.959999084472656 L 107 37 L 106.99400329589844 36.891998291015625 L 106.947998046875 36.680999755859375 L 106.85700225830078 36.48400115966797 L 106.72599792480469 36.3120002746582 L 106.56099700927734 36.172000885009766 L 106.49600219726562 36.13762664794922 L 106.37000274658203 36.07099914550781 L 106.16200256347656 36.01300048828125 L 105.94599914550781 36.000999450683594 L 105.73200225830078 36.0359992980957 L 105.53199768066406 36.11600112915039 L 105.35299682617188 36.237998962402344 L 105.2040023803711 36.39500045776367 L 105.09200286865234 36.58000183105469 L 105.02300262451172 36.78499984741211 L 105 37 L 105 40.959999084472656 L 105 43 L 105.00599670410156 43.108001708984375 L 105.052001953125 43.319000244140625 L 105.14299774169922 43.51599884033203 L 105.27400207519531 43.6879997253418 M 56.05400085449219 43.999000549316406 L 56.268001556396484 43.9640007019043 L 56.46799850463867 43.88399887084961 L 56.64699935913086 43.762001037597656 L 56.79600143432617 43.60499954223633 L 56.90800094604492 43.41999816894531 L 56.97700119018555 43.21500015258789 L 56.9991455078125 43.007999420166016 L 57 43 L 57 40.959999084472656 L 57 37 L 56.99399948120117 36.891998291015625 L 56.98789596557617 36.86399841308594 L 56.948001861572266 36.680999755859375 L 56.856998443603516 36.48400115966797 L 56.72600173950195 36.3120002746582 L 56.56100082397461 36.172000885009766 L 56.369998931884766 36.07099914550781 L 56.1619987487793 36.01300048828125 L 55.94599914550781 36.000999450683594 L 55.731998443603516 36.0359992980957 L 55.53200149536133 36.11600112915039 L 55.35300064086914 36.237998962402344 L 55.20399856567383 36.39500045776367 L 55.09199905395508 36.58000183105469 L 55.02299880981445 36.78499984741211 L 55.014549255371094 36.86399841308594 L 55 37 L 55 40.959999084472656 L 55 43 L 55.00044631958008 43.007999420166016 L 55.00600051879883 43.108001708984375 L 55.051998138427734 43.319000244140625 L 55.143001556396484 43.51599884033203 L 55.27399826049805 43.6879997253418 L 55.43899917602539 43.827999114990234 L 55.630001068115234 43.92900085449219 L 55.8380012512207 43.98699951171875 L 56.05400085449219 43.999000549316406 M 78 16 L 81.91999816894531 16 L 84 16 L 84.10800170898438 15.994000434875488 L 84.31900024414062 15.947999954223633 L 84.51599884033203 15.857000350952148 L 84.68800354003906 15.72599983215332 L 84.8280029296875 15.560999870300293 L 84.92900085449219 15.369999885559082 L 84.98699951171875 15.161999702453613 L 84.9990005493164 14.946000099182129 L 84.96399688720703 14.732000350952148 L 84.88400268554688 14.531999588012695 L 84.76200103759766 14.352999687194824 L 84.74408721923828 14.336000442504883 L 84.6050033569336 14.204000473022461 L 84.41999816894531 14.092000007629395 L 84.21499633789062 14.02299976348877 L 84 14 L 81.91999816894531 14 L 78 14 L 77.89199829101562 14.005999565124512 L 77.8239974975586 14.020824432373047 L 77.68099975585938 14.052000045776367 L 77.48400115966797 14.142999649047852 L 77.31199645996094 14.27400016784668 L 77.1719970703125 14.439000129699707 L 77.07099914550781 14.630000114440918 L 77.01300048828125 14.838000297546387 L 77.0009994506836 15.053999900817871 L 77.03600311279297 15.267999649047852 L 77.11599731445312 15.468000411987305 L 77.23799896240234 15.647000312805176 L 77.3949966430664 15.795999526977539 L 77.58000183105469 15.907999992370605 L 77.78500366210938 15.97700023651123 L 77.8239974975586 15.981172561645508 L 78 16 M 77.11599731445312 65.46800231933594 L 77.16234588623047 65.53600311279297 L 77.23799896240234 65.64700317382812 L 77.3949966430664 65.7959976196289 L 77.58000183105469 65.90799713134766 L 77.78500366210938 65.97699737548828 L 78 66 L 84 66 L 84.10800170898438 65.99400329589844 L 84.31900024414062 65.947998046875 L 84.51599884033203 65.85700225830078 L 84.68800354003906 65.72599792480469 L 84.8280029296875 65.56099700927734 L 84.84121704101562 65.53600311279297 L 84.92900085449219 65.37000274658203 L 84.98699951171875 65.16200256347656 L 84.9990005493164 64.94599914550781 L 84.96399688720703 64.73200225830078 L 84.88400268554688 64.53199768066406 L 84.76200103759766 64.35299682617188 L 84.6050033569336 64.2040023803711 L 84.41999816894531 64.09200286865234 L 84.21499633789062 64.02300262451172 L 84 64 L 81.91999816894531 64 L 78 64 L 77.89199829101562 64.00599670410156 L 77.68099975585938 64.052001953125 L 77.48400115966797 64.14299774169922 L 77.31199645996094 64.27400207519531 L 77.1719970703125 64.43900299072266 L 77.07099914550781 64.62999725341797 L 77.01300048828125 64.83799743652344 L 77.0009994506836 65.05400085449219 L 77.03600311279297 65.26799774169922 L 77.11599731445312 65.46800231933594 z" fill="none" stroke="rgb(0,0,255)" stroke-width="0.01mm" />
</svg>