<?xml version="1.0" standalone="no"?>
<!DOCTYPE svg PUBLIC "-//W3C//DTD SVG 1.1//EN"
  "http://www.w3.org/Graphics/SVG/1.1/DTD/svg11.dtd">
<svg width="82mm" height="82mm" viewBox="-41 -41 82 82" xmlns="http://www.w3.org/2000/svg" version="1.1">
	<title>svgOutput</title>
	<desc>made with tinkercad</desc>
<path d="M -24 40 L -24 36 L -36 36 L -36 32.768001556396484 L -36 24 L -40 24 L -40 16.384000778198242 L -40 16.37261390686035 L -40 12.288000106811523 L -40 11.302450180053711 L -40 9.799432754516602 L -40 8.524678230285645 L -40 8.192000389099121 L -40 8 L -36 8 L -36 4.440892164675075e-17 L -36 -8 L -40 -8 L -40 -8.192000389099121 L -40 -12.288000106811523 L -40 -16.384000778198242 L -40 -24 L -36 -24 L -36 -32.768001556396484 L -36 -36 L -24 -36 L -24 -40 L -8 -40 L -8 -36 L 0 -36 L 8 -36 L 8 -40 L 24 -40 L 24 -36 L 36 -36 L 36 -32.768001556396484 L 36 -24 L 40 -24 L 40 -8 L 36 -8 L 36 4.440892164675075e-17 L 36 8 L 40 8 L 40 24 L 36 24 L 36 32.768001556396484 L 36 36 L 24 36 L 24 40 L 8 40 L 8 36 L 0 36 L -8 36 L -8 40 L -24 40 M -32.03580093383789 7.014100074768066 L -32.04574966430664 7.0159502029418945 L -32.05018615722656 7.017824649810791 L -32.2234001159668 7.091000080108643 L -32.236000061035156 7.0960001945495605 L -32.2374153137207 7.096920490264893 L -32.404998779296875 7.205999851226807 L -32.549400329589844 7.3333001136779785 L -32.559200286865234 7.342599868774414 L -32.71500015258789 7.547800064086914 L -32.72100067138672 7.556000232696533 L -32.768001556396484 7.644777774810791 L -32.784000396728516 7.675000190734863 L -32.83058166503906 7.803947925567627 L -32.85300064086914 7.866000175476074 L -32.89384841918945 8.11870002746582 L -32.895851135253906 8.128649711608887 L -32.895851135253906 8.142149925231934 L -32.89511489868164 8.192000389099121 L -32.893001556396484 8.335000038146973 L -32.85300064086914 8.534000396728516 L -32.784000396728516 8.725000381469727 L -32.768001556396484 8.75272274017334 L -32.68299865722656 8.899999618530273 L -32.55699920654297 9.0600004196167 L -32.404998779296875 9.194000244140625 L -32.236000061035156 9.303999900817871 L -32.04899978637695 9.383000373840332 L -31.86185073852539 9.431449890136719 L -31.848649978637695 9.43435001373291 L -31.59214973449707 9.447649955749512 L -31.582000732421875 9.447999954223633 L -31.31599998474121 9.404000282287598 L -31.193450927734375 9.363149642944336 L -31.180849075317383 9.358149528503418 L -31.06399917602539 9.303999900817871 L -30.895000457763672 9.194000244140625 L -30.743000030517578 9.0600004196167 L -30.719999313354492 9.030793190002441 L -30.617000579833984 8.899999618530273 L -30.516000747680664 8.725000381469727 L -30.44700050354004 8.534000396728516 L -30.406999588012695 8.335000038146973 L -30.406999588012695 8.192000389099121 L -30.406999588012695 8.0649995803833 L -30.44700050354004 7.866000175476074 L -30.516000747680664 7.675000190734863 L -30.617000579833984 7.5 L -30.743000030517578 7.340000152587891 L -30.887399673461914 7.212699890136719 L -30.8976993560791 7.203949928283691 L -31.117149353027344 7.071899890899658 L -31.12904930114746 7.0655999183654785 L -31.357641220092773 6.993898868560791 L -31.43494987487793 6.969649791717529 L -31.444700241088867 6.966750144958496 L -31.636600494384766 6.9534502029418945 L -31.6466007232666 6.952000141143799 L -31.656749725341797 6.95235013961792 L -31.848649978637695 6.9656500816345215 L -32.03580093383789 7.014100074768066 M -34.342750549316406 13.871299743652344 L -34.34270477294922 13.87136173248291 L -34.332950592041016 13.884249687194824 L -34.15435028076172 14.031499862670898 L -34.141998291015625 14.041999816894531 L -33.92900085449219 14.159000396728516 L -33.70100021362305 14.244999885559082 L -33.46200180053711 14.288999557495117 L -33.21900177001953 14.29800033569336 L -32.97800064086914 14.262999534606934 L -32.768001556396484 14.199910163879395 L -32.744998931884766 14.192999839782715 L -32.73759841918945 14.189599990844727 L -32.46495056152344 14.046150207519531 L -32.4515495300293 14.037050247192383 L -32.32899856567383 13.942999839782715 L -32.15800094604492 13.770000457763672 L -32.01499938964844 13.572999954223633 L -32.0123291015625 13.56747817993164 L -31.9143009185791 13.364950180053711 L -31.907499313354492 13.350250244140625 L -31.8039493560791 12.823949813842773 L -31.80175018310547 12.816100120544434 L -31.799999237060547 12.800000190734863 L -31.80175018310547 12.783900260925293 L -31.86862564086914 12.378418922424316 L -31.876800537109375 12.328849792480469 L -31.89303207397461 12.288000106811523 L -31.933799743652344 12.185400009155273 L -31.93899917602539 12.170000076293945 L -32.01499938964844 12.027000427246094 L -32.21099853515625 11.767999649047852 L -32.38151931762695 11.62302303314209 L -32.45800018310547 11.557999610900879 L -32.73065185546875 11.414549827575684 L -32.73759841918945 11.410400390625 L -32.75015640258789 11.405410766601562 L -32.75270080566406 11.404399871826172 L -32.7646484375 11.402199745178223 L -32.768001556396484 11.401457786560059 L -33.21495056152344 11.302450180053711 L -33.38505172729492 11.302450180053711 L -33.689048767089844 11.352800369262695 L -33.70100021362305 11.354999542236328 L -33.92900085449219 11.440999984741211 L -34.12005615234375 11.54594612121582 L -34.141998291015625 11.557999610900879 L -34.376651763916016 11.757499694824219 L -34.386051177978516 11.765250205993652 L -34.52949905395508 11.946700096130371 L -34.540000915527344 11.958999633789062 L -34.6609992980957 12.170000076293945 L -34.700843811035156 12.288000106811523 L -34.75979995727539 12.462599754333496 L -34.76565170288086 12.482000350952148 L -34.79890060424805 12.7878999710083 L -34.79999923706055 12.800000190734863 L -34.79145050048828 12.953900337219238 L -34.78969955444336 12.970000267028809 L -34.76499938964844 13.121999740600586 L -34.691001892089844 13.354000091552734 L -34.61429977416992 13.512467384338379 L -34.584999084472656 13.572999954223633 L -34.49855041503906 13.701250076293945 L -34.342750549316406 13.871299743652344 M -32.59700012207031 -14.125 L -32.744998931884766 -14.192999839782715 L -32.768001556396484 -14.199910163879395 L -32.97800064086914 -14.262999534606934 L -33.21900177001953 -14.29800033569336 L -33.46200180053711 -14.288999557495117 L -33.645240783691406 -14.255265235900879 L -33.70100021362305 -14.244999885559082 L -33.917598724365234 -14.163299560546875 L -33.92530059814453 -14.160699844360352 L -33.93614959716797 -14.155200004577637 L -34.087703704833984 -14.071951866149902 L -34.13850021362305 -14.044050216674805 L -34.261051177978516 -13.949999809265137 L -34.270999908447266 -13.942999839782715 L -34.38309860229492 -13.837550163269043 L -34.52655029296875 -13.656100273132324 L -34.540000915527344 -13.640999794006348 L -34.6609992980957 -13.430000305175781 L -34.66400146484375 -13.422450065612793 L -34.76279830932617 -13.129850387573242 L -34.765750885009766 -13.116000175476074 L -34.78071594238281 -12.978315353393555 L -34.79899978637695 -12.810099601745605 L -34.79045104980469 -12.656200408935547 L -34.79100036621094 -12.637999534606934 L -34.74300003051758 -12.39900016784668 L -34.70325469970703 -12.288000106811523 L -34.6609992980957 -12.170000076293945 L -34.540000915527344 -11.958999633789062 L -34.388999938964844 -11.767999649047852 L -34.141998291015625 -11.557999610900879 L -33.92900085449219 -11.440999984741211 L -33.70100021362305 -11.354999542236328 L -33.46200180053711 -11.310999870300293 L -33.21900177001953 -11.302000045776367 L -32.97800064086914 -11.336999893188477 L -32.768001556396484 -11.400090217590332 L -32.744998931884766 -11.406999588012695 L -32.59700012207031 -11.475000381469727 L -32.39400100708008 -11.607999801635742 L -32.21099853515625 -11.767999649047852 L -32.11125183105469 -11.8858003616333 L -32.1014518737793 -11.898750305175781 L -32.09560012817383 -11.911649703979492 L -31.87994956970215 -12.319199562072754 L -31.838150024414062 -12.468350410461426 L -31.83536148071289 -12.485508918762207 L -31.81344985961914 -12.620349884033203 L -31.80900001525879 -12.637999534606934 L -31.80900001525879 -12.961999893188477 L -31.878999710083008 -13.279000282287598 L -31.97209930419922 -13.490850448608398 L -31.978900909423828 -13.505550384521484 L -32.150848388671875 -13.760149955749512 L -32.15800094604492 -13.770000457763672 L -32.39400100708008 -13.991999626159668 L -32.59700012207031 -14.125 M 17.023561477661133 -11.59008502960205 L 17.12700080871582 -11.515000343322754 L 17.270000457763672 -11.439000129699707 L 17.714599609375 -11.315500259399414 L 17.722150802612305 -11.3125 L 17.729999542236328 -11.31029987335205 L 17.7460994720459 -11.308549880981445 L 17.899999618530273 -11.300000190734863 L 20.479999542236328 -11.300000190734863 L 20.899999618530273 -11.300000190734863 L 21.142000198364258 -11.321999549865723 L 21.378999710083008 -11.378999710083008 L 21.522449493408203 -11.435999870300293 L 21.53714942932129 -11.44279956817627 L 21.67300033569336 -11.515000343322754 L 21.8700008392334 -11.657999992370605 L 22.042999267578125 -11.829000473022461 L 22.049999237060547 -11.838950157165527 L 22.19658660888672 -12.054802894592285 L 22.222900390625 -12.093549728393555 L 22.287500381469727 -12.234149932861328 L 22.292999267578125 -12.244999885559082 L 22.305917739868164 -12.288000106811523 L 22.363000869750977 -12.477999687194824 L 22.398000717163086 -12.718999862670898 L 22.388999938964844 -12.961999893188477 L 22.350513458251953 -13.171049118041992 L 22.344999313354492 -13.201000213623047 L 22.279264450073242 -13.366432189941406 L 22.231000900268555 -13.487899780273438 L 22.226699829101562 -13.499300003051758 L 22.10034942626953 -13.692150115966797 L 22.094499588012695 -13.702799797058105 L 21.9424991607666 -13.876649856567383 L 21.93199920654297 -13.888999938964844 L 21.75054931640625 -14.032449722290039 L 21.737600326538086 -14.04224967956543 L 21.621549606323242 -14.108799934387207 L 21.53714942932129 -14.15719985961914 L 21.393699645996094 -14.214200019836426 L 21.378999710083008 -14.220999717712402 L 21.142000198364258 -14.277999877929688 L 20.899999618530273 -14.300000190734863 L 20.479999542236328 -14.300000190734863 L 18.19260025024414 -14.300000190734863 L 17.899999618530273 -14.300000190734863 L 17.594100952148438 -14.26675033569336 L 17.586000442504883 -14.266300201416016 L 17.57015037536621 -14.262800216674805 L 17.42099952697754 -14.220999717712402 L 17.197999954223633 -14.123000144958496 L 16.992000579833984 -13.994000434875488 L 16.98579978942871 -13.988750457763672 L 16.731239318847656 -13.720470428466797 L 16.668500900268555 -13.654350280761719 L 16.660499572753906 -13.6451997756958 L 16.54935073852539 -13.442850112915039 L 16.542699813842773 -13.432700157165527 L 16.538000106811523 -13.421449661254883 L 16.511255264282227 -13.350544929504395 L 16.456300735473633 -13.204850196838379 L 16.414499282836914 -12.977800369262695 L 16.411449432373047 -12.966050148010254 L 16.41054916381836 -12.949850082397461 L 16.419099807739258 -12.565099716186523 L 16.420000076293945 -12.557000160217285 L 16.481000900268555 -12.321999549865723 L 16.49520492553711 -12.288000106811523 L 16.575000762939453 -12.097000122070312 L 16.756999969482422 -11.829000473022461 L 16.93000030517578 -11.657999992370605 L 17.023561477661133 -11.59008502960205 M 21.400449752807617 11.390350341796875 L 21.393699645996094 11.3858003616333 L 21.378999710083008 11.378999710083008 L 21.142000198364258 11.321999549865723 L 20.899999618530273 11.300000190734863 L 17.899999618530273 11.300000190734863 L 17.577999114990234 11.335000038146973 L 17.270000457763672 11.439000129699707 L 16.992000579833984 11.605999946594238 L 16.756999969482422 11.829000473022461 L 16.617000579833984 12.027999877929688 L 16.506999969482422 12.244999885559082 L 16.492481231689453 12.288000106811523 L 16.454999923706055 12.39900016784668 L 16.410999298095703 12.637999534606934 L 16.406143188476562 12.769137382507324 L 16.402000427246094 12.880999565124512 L 16.452350616455078 13.1850004196167 L 16.453250885009766 13.193099975585938 L 16.457149505615234 13.206700325012207 L 16.54860496520996 13.43686294555664 L 16.571149826049805 13.493599891662598 L 16.649999618530273 13.625650405883789 L 16.660499572753906 13.6451997756958 L 16.860000610351562 13.879850387573242 L 16.868000030517578 13.888999938964844 L 16.992000579833984 13.994000434875488 L 17.197999954223633 14.123000144958496 L 17.499000549316406 14.243000030517578 L 17.738000869750977 14.291000366210938 L 17.899999618530273 14.300000190734863 L 20.479999542236328 14.300000190734863 L 20.899999618530273 14.300000190734863 L 21.142000198364258 14.277999877929688 L 21.378999710083008 14.220999717712402 L 21.601999282836914 14.123000144958496 L 21.797700881958008 14.000450134277344 L 21.81974983215332 13.982850074768066 L 22.042999267578125 13.770999908447266 L 22.176000595092773 13.581950187683105 L 22.185100555419922 13.568550109863281 L 22.289600372314453 13.36240005493164 L 22.292999267578125 13.354999542236328 L 22.363000869750977 13.121999740600586 L 22.398000717163086 12.880999565124512 L 22.388999938964844 12.637999534606934 L 22.344999313354492 12.39900016784668 L 22.307519912719727 12.288000106811523 L 22.292999267578125 12.244999885559082 L 22.183000564575195 12.027999877929688 L 22.042999267578125 11.829000473022461 L 22.025428771972656 11.81163215637207 L 21.878650665283203 11.666549682617188 L 21.866899490356445 11.655400276184082 L 21.400449752807617 11.390350341796875 z" fill="none" stroke="rgb(0,0,255)" stroke-width="0.01mm" />
</svg>