<?xml version="1.0" standalone="no"?>
<!DOCTYPE svg PUBLIC "-//W3C//DTD SVG 1.1//EN"
  "http://www.w3.org/Graphics/SVG/1.1/DTD/svg11.dtd">
<svg width="82mm" height="82mm" viewBox="-41 -82 82 82" xmlns="http://www.w3.org/2000/svg" version="1.1">
	<title>svgOutput</title>
	<desc>made with tinkercad</desc>
<path d="M -40 -1 L -40 -17 L -36 -17 L -36 -32.768001556396484 L -36 -33 L -40 -33 L -40 -49 L -36 -49 L -36 -65 L -40 -65 L -40 -65.53600311279297 L -40 -81 L -32.768001556396484 -81 L -24 -81 L -24 -77 L -16.384000778198242 -77 L -8.192000389099121 -77 L -8 -77 L -8 -81 L 0 -81 L 8 -81 L 8 -77 L 8.192000389099121 -77 L 16.384000778198242 -77 L 24 -77 L 24 -81 L 32.768001556396484 -81 L 40 -81 L 40 -65.53600311279297 L 40 -65 L 36 -65 L 36 -49 L 40 -49 L 40 -33 L 36 -33 L 36 -32.768001556396484 L 36 -17 L 40 -17 L 40 -1 L 36 -1 L 32.768001556396484 -1 L 24 -1 L 24 -5 L 16.384000778198242 -5 L 8.192000389099121 -5 L 8 -5 L 8 -1 L 0 -1 L -8 -1 L -8 -5 L -8.192000389099121 -5 L -16.384000778198242 -5 L -24 -5 L -24 -1 L -32.768001556396484 -1 L -40 -1 M 3 -14.5 L 0 -14.5 L -3 -14.5 L -3.1080000400543213 -14.494000434875488 L -3.319000005722046 -14.447999954223633 L -3.5160000324249268 -14.357000350952148 L -3.543572425842285 -14.336000442504883 L -3.687999963760376 -14.22599983215332 L -3.828000068664551 -14.060999870300293 L -3.928999900817871 -13.869999885559082 L -3.986999988555908 -13.661999702453613 L -3.999000072479248 -13.446000099182129 L -3.9639999866485596 -13.232000350952148 L -3.884000062942505 -13.031999588012695 L -3.76200008392334 -12.852999687194824 L -3.6050000190734863 -12.704000473022461 L -3.4200000762939453 -12.592000007629395 L -3.2149999141693115 -12.52299976348877 L -3 -12.5 L 0 -12.5 L 3 -12.5 L 3.1080000400543213 -12.505999565124512 L 3.319000005722046 -12.552000045776367 L 3.5160000324249268 -12.642999649047852 L 3.687999963760376 -12.77400016784668 L 3.828000068664551 -12.939000129699707 L 3.928999900817871 -13.130000114440918 L 3.986999988555908 -13.338000297546387 L 3.999000072479248 -13.553999900817871 L 3.9639999866485596 -13.767999649047852 L 3.884000062942505 -13.968000411987305 L 3.76200008392334 -14.147000312805176 L 3.6050000190734863 -14.295999526977539 L 3.538928508758545 -14.336000442504883 L 3.4200000762939453 -14.407999992370605 L 3.2149999141693115 -14.47700023651123 L 3 -14.5 M 3.2149999141693115 -69.47699737548828 L 3 -69.5 L 0 -69.5 L -3 -69.5 L -3.1080000400543213 -69.49400329589844 L -3.319000005722046 -69.447998046875 L -3.5160000324249268 -69.35700225830078 L -3.687999963760376 -69.22599792480469 L -3.828000068664551 -69.06099700927734 L -3.928999900817871 -68.87000274658203 L -3.986999988555908 -68.66200256347656 L -3.999000072479248 -68.44599914550781 L -3.9639999866485596 -68.23200225830078 L -3.884000062942505 -68.03199768066406 L -3.76200008392334 -67.85299682617188 L -3.6050000190734863 -67.7040023803711 L -3.4200000762939453 -67.59200286865234 L -3.3962318897247314 -67.58399963378906 L -3.2149999141693115 -67.52300262451172 L -3 -67.5 L 0 -67.5 L 3 -67.5 L 3.1080000400543213 -67.50599670410156 L 3.319000005722046 -67.552001953125 L 3.388274669647217 -67.58399963378906 L 3.5160000324249268 -67.64299774169922 L 3.687999963760376 -67.77400207519531 L 3.828000068664551 -67.93900299072266 L 3.928999900817871 -68.12999725341797 L 3.986999988555908 -68.33799743652344 L 3.999000072479248 -68.55400085449219 L 3.9639999866485596 -68.76799774169922 L 3.884000062942505 -68.96800231933594 L 3.76200008392334 -69.14700317382812 L 3.6050000190734863 -69.2959976196289 L 3.4200000762939453 -69.40799713134766 L 3.2149999141693115 -69.47699737548828 M 28.5 -38 L 28.5 -38.9119987487793 L 28.5 -40.959999084472656 L 28.5 -43.007999420166016 L 28.5 -44 L 28.493999481201172 -44.108001708984375 L 28.447999954223633 -44.319000244140625 L 28.35700035095215 -44.51599884033203 L 28.22599983215332 -44.6879997253418 L 28.06100082397461 -44.827999114990234 L 27.8700008392334 -44.92900085449219 L 27.66200065612793 -44.98699951171875 L 27.445999145507812 -44.999000549316406 L 27.23200035095215 -44.9640007019043 L 27.031999588012695 -44.88399887084961 L 26.85300064086914 -44.762001037597656 L 26.70400047302246 -44.60499954223633 L 26.624000549316406 -44.47285842895508 L 26.591999053955078 -44.41999816894531 L 26.523000717163086 -44.21500015258789 L 26.5 -44 L 26.5 -43.007999420166016 L 26.5 -40.959999084472656 L 26.5 -38.9119987487793 L 26.5 -38 L 26.506000518798828 -37.891998291015625 L 26.552000045776367 -37.680999755859375 L 26.624000549316406 -37.52513122558594 L 26.64299964904785 -37.48400115966797 L 26.77400016784668 -37.3120002746582 L 26.93899917602539 -37.172000885009766 L 27.1299991607666 -37.07099914550781 L 27.33799934387207 -37.01300048828125 L 27.554000854492188 -37.000999450683594 L 27.76799964904785 -37.0359992980957 L 27.968000411987305 -37.11600112915039 L 28.14699935913086 -37.237998962402344 L 28.29599952697754 -37.39500045776367 L 28.408000946044922 -37.58000183105469 L 28.476999282836914 -37.78499984741211 L 28.5 -38 M -26.5 -38.9119987487793 L -26.5 -40.959999084472656 L -26.5 -43.007999420166016 L -26.5 -44 L -26.506000518798828 -44.108001708984375 L -26.552000045776367 -44.319000244140625 L -26.624000549316406 -44.47486877441406 L -26.64299964904785 -44.51599884033203 L -26.77400016784668 -44.6879997253418 L -26.93899917602539 -44.827999114990234 L -27.1299991607666 -44.92900085449219 L -27.33799934387207 -44.98699951171875 L -27.554000854492188 -44.999000549316406 L -27.76799964904785 -44.9640007019043 L -27.968000411987305 -44.88399887084961 L -28.14699935913086 -44.762001037597656 L -28.29599952697754 -44.60499954223633 L -28.408000946044922 -44.41999816894531 L -28.476999282836914 -44.21500015258789 L -28.5 -44 L -28.5 -43.007999420166016 L -28.5 -40.959999084472656 L -28.5 -38.9119987487793 L -28.5 -38 L -28.493999481201172 -37.891998291015625 L -28.447999954223633 -37.680999755859375 L -28.35700035095215 -37.48400115966797 L -28.22599983215332 -37.3120002746582 L -28.06100082397461 -37.172000885009766 L -27.8700008392334 -37.07099914550781 L -27.66200065612793 -37.01300048828125 L -27.656600952148438 -37.01240158081055 L -27.451400756835938 -37.000999450683594 L -27.445999145507812 -37.000999450683594 L -27.23200035095215 -37.0359992980957 L -27.031999588012695 -37.11600112915039 L -26.85300064086914 -37.237998962402344 L -26.70400047302246 -37.39500045776367 L -26.624000549316406 -37.52714157104492 L -26.591999053955078 -37.58000183105469 L -26.523000717163086 -37.78499984741211 L -26.5 -38 L -26.5 -38.9119987487793 z" fill="none" stroke="rgb(0,0,255)" stroke-width="0.01mm" />
</svg>