<?xml version="1.0" standalone="no"?>
<!DOCTYPE svg PUBLIC "-//W3C//DTD SVG 1.1//EN"
  "http://www.w3.org/Graphics/SVG/1.1/DTD/svg11.dtd">
<svg width="82mm" height="82mm" viewBox="-41 -1 82 82" xmlns="http://www.w3.org/2000/svg" version="1.1">
	<title>svgOutput</title>
	<desc>made with tinkercad</desc>
<path d="M -40 16 L -36 16 L -36 4 L -24 4 L -24 4.440892164675075e-17 L -8 4.440892164675075e-17 L -8 4 L 0 4 L 8 4 L 8 4.440892164675075e-17 L 24 4.440892164675075e-17 L 24 4 L 36 4 L 36 16 L 40 16 L 40 32 L 36 32 L 36 48 L 40 48 L 40 64 L 36 64 L 36 65.53600311279297 L 36 68.69999694824219 L 36 74.5 L 36 76 L 24 76 L 24 74.5 L 22 74.5 L 22 68.69999694824219 L 10 68.69999694824219 L 10 74.5 L 8 74.5 L 8 76 L -8 76 L -8 80 L -24 80 L -24 76 L -36 76 L -36 65.53600311279297 L -36 64 L -40 64 L -40 48 L -36 48 L -36 32 L -40 32 L -40 16 z" fill="none" stroke="rgb(0,0,255)" stroke-width="0.01mm" />
</svg>