<?xml version="1.0" standalone="no"?>
<!DOCTYPE svg PUBLIC "-//W3C//DTD SVG 1.1//EN"
  "http://www.w3.org/Graphics/SVG/1.1/DTD/svg11.dtd">
<svg width="244mm" height="163mm" viewBox="-122 -82 244 163" xmlns="http://www.w3.org/2000/svg" version="1.1">
	<title>svgOutput</title>
	<desc>made with tinkercad</desc>
<path d="M -121 -1 L -121 -17 L -117 -17 L -117 -32.768001556396484 L -117 -33 L -121 -33 L -121 -34.54999923706055 L -121 -38.79999923706055 L -121 -49 L -117 -49 L -117 -65 L -121 -65 L -121 -65.53600311279297 L -121 -81 L -105 -81 L -105 -77 L -98.30400085449219 -77 L -89 -77 L -89 -81 L -81.91999816894531 -81 L -77.8239974975586 -81 L -73.72799682617188 -81 L -73 -81 L -73 -77 L -65.53600311279297 -77 L -57 -77 L -57 -81 L -41 -81 L -41 -65.53600311279297 L -41 -65 L -45 -65 L -45 -49 L -41 -49 L -41 -33 L -45 -33 L -45 -17 L -41 -17 L -41 -1 L -45 -1 L -57 -1 L -57 -5 L -65.53600311279297 -5 L -73 -5 L -73 -1 L -81.91999816894531 -1 L -89 -1 L -89 -5 L -98.30400085449219 -5 L -105 -5 L -105 -1 L -117 -1 L -121 -1 M 24 -1 L 24 -5 L 16.384000778198242 -5 L 8.192000389099121 -5 L 8 -5 L 8 -1 L 0 -1 L -8 -1 L -8 -5 L -8.192000389099121 -5 L -16.384000778198242 -5 L -24 -5 L -24 -1 L -32.768001556396484 -1 L -40 -1 L -40 -17 L -36 -17 L -36 -32.768001556396484 L -36 -33 L -40 -33 L -40 -49 L -36 -49 L -36 -65 L -40 -65 L -40 -65.53600311279297 L -40 -81 L -32.768001556396484 -81 L -24 -81 L -24 -77 L -16.384000778198242 -77 L -8.192000389099121 -77 L -8 -77 L -8 -81 L 0 -81 L 8 -81 L 8 -77 L 8.192000389099121 -77 L 16.384000778198242 -77 L 24 -77 L 24 -81 L 32.768001556396484 -81 L 40 -81 L 40 -65.53600311279297 L 40 -65 L 36 -65 L 36 -49 L 40 -49 L 40 -33 L 36 -33 L 36 -32.768001556396484 L 36 -17 L 40 -17 L 40 -1 L 36 -1 L 32.768001556396484 -1 L 24 -1 M -45 4 L -45 16 L -41 16 L -41 16.384000778198242 L -41 32 L -45 32 L -45 32.768001556396484 L -45 48 L -41 48 L -41 49.152000427246094 L -41 64 L -45 64 L -45 65.53600311279297 L -45 76 L -57 76 L -57 80 L -73 80 L -73 76 L -89 76 L -89 80 L -105 80 L -105 76 L -117 76 L -117 65.53600311279297 L -117 64 L -121 64 L -121 57.34400177001953 L -121 53.24800109863281 L -121 52.5146484375 L -121 52.39805221557617 L -121 49.152000427246094 L -121 48 L -117 48 L -117 32.768001556396484 L -117 32 L -121 32 L -121 28.672000885009766 L -121 24.576000213623047 L -121 16.384000778198242 L -121 16 L -117 16 L -117 4 L -105 4 L -105 4.440892164675075e-17 L -98.30400085449219 4.440892164675075e-17 L -89 4.440892164675075e-17 L -89 4 L -73 4 L -73 4.440892164675075e-17 L -65.53600311279297 4.440892164675075e-17 L -57 4.440892164675075e-17 L -57 4 L -45 4 M 57 4.440892164675075e-17 L 57 4 L 65.53600311279297 4 L 73 4 L 73 4.440892164675075e-17 L 81.91999816894531 4.440892164675075e-17 L 89 4.440892164675075e-17 L 89 4 L 98.30400085449219 4 L 105 4 L 105 4.440892164675075e-17 L 117 4.440892164675075e-17 L 117 16 L 121 16 L 121 32 L 117 32 L 117 32.768001556396484 L 117 48 L 121 48 L 121 49.152000427246094 L 121 64 L 117 64 L 117 65.53600311279297 L 117 80 L 105 80 L 105 76 L 98.30400085449219 76 L 89 76 L 89 80 L 73 80 L 73 76 L 65.53600311279297 76 L 57 76 L 57 80 L 45 80 L 45 76 L 45 65.53600311279297 L 45 64 L 41 64 L 41 49.152000427246094 L 41 48 L 45 48 L 45 32.768001556396484 L 45 32 L 41 32 L 41 16 L 45 16 L 45 4 L 45 4.440892164675075e-17 L 57 4.440892164675075e-17 M 40 64 L 36 64 L 36 65.53600311279297 L 36 68.69999694824219 L 36 74.5 L 36 76 L 24 76 L 24 74.5 L 22 74.5 L 22 68.69999694824219 L 10 68.69999694824219 L 10 74.5 L 8 74.5 L 8 76 L -8 76 L -8 80 L -24 80 L -24 76 L -36 76 L -36 65.53600311279297 L -36 64 L -40 64 L -40 48 L -36 48 L -36 32 L -40 32 L -40 16 L -36 16 L -36 4 L -24 4 L -24 4.440892164675075e-17 L -8 4.440892164675075e-17 L -8 4 L 0 4 L 8 4 L 8 4.440892164675075e-17 L 24 4.440892164675075e-17 L 24 4 L 36 4 L 36 16 L 40 16 L 40 32 L 36 32 L 36 48 L 40 48 L 40 64 M -113.03579711914062 47.01409912109375 L -113.0457534790039 47.01594924926758 L -113.05018615722656 47.017826080322266 L -113.22339630126953 47.090999603271484 L -113.23600006103516 47.09600067138672 L -113.23741149902344 47.096920013427734 L -113.248291015625 47.104000091552734 L -113.40499877929688 47.20600128173828 L -113.54940032958984 47.33330154418945 L -113.55919647216797 47.34260177612305 L -113.71499633789062 47.54779815673828 L -113.72100067138672 47.555999755859375 L -113.78399658203125 47.67499923706055 L -113.83058166503906 47.80394744873047 L -113.85299682617188 47.86600112915039 L -113.89385223388672 48.11869812011719 L -113.8958511352539 48.1286506652832 L -113.8958511352539 48.14215087890625 L -113.89299774169922 48.334999084472656 L -113.85299682617188 48.534000396728516 L -113.78399658203125 48.724998474121094 L -113.68299865722656 48.900001525878906 L -113.55699920654297 49.060001373291016 L -113.45264434814453 49.152000427246094 L -113.40499877929688 49.194000244140625 L -113.23600006103516 49.30400085449219 L -113.04900360107422 49.382999420166016 L -112.86184692382812 49.43144989013672 L -112.84864807128906 49.434349060058594 L -112.59214782714844 49.44765090942383 L -112.58200073242188 49.448001861572266 L -112.31600189208984 49.40399932861328 L -112.19345092773438 49.36315155029297 L -112.18084716796875 49.358150482177734 L -112.06400299072266 49.30400085449219 L -111.8949966430664 49.194000244140625 L -111.84735870361328 49.152000427246094 L -111.74299621582031 49.060001373291016 L -111.61699676513672 48.900001525878906 L -111.51599884033203 48.724998474121094 L -111.4469985961914 48.534000396728516 L -111.40699768066406 48.334999084472656 L -111.40699768066406 48.064998626708984 L -111.4469985961914 47.86600112915039 L -111.51599884033203 47.67499923706055 L -111.61699676513672 47.5 L -111.74299621582031 47.34000015258789 L -111.88739776611328 47.21269989013672 L -111.89769744873047 47.203948974609375 L -112.06380462646484 47.104000091552734 L -112.11714935302734 47.0718994140625 L -112.1290512084961 47.06560134887695 L -112.3576431274414 46.993900299072266 L -112.43495178222656 46.96965026855469 L -112.4447021484375 46.96675109863281 L -112.6365966796875 46.95344924926758 L -112.64659881591797 46.95199966430664 L -112.65675354003906 46.95235061645508 L -112.84864807128906 46.96564865112305 L -113.03579711914062 47.01409912109375 M 41 -65 L 45 -65 L 45 -65.53600311279297 L 45 -81 L 57 -81 L 57 -77 L 65.53600311279297 -77 L 73 -77 L 73 -81 L 89 -81 L 89 -77 L 105 -77 L 105 -81 L 117 -81 L 117 -77 L 117 -66.25 L 117 -65.53600311279297 L 117 -65 L 121 -65 L 121 -49.152000427246094 L 121 -49 L 117 -49 L 117 -33 L 121 -33 L 121 -32.768001556396484 L 121 -17 L 117 -17 L 117 -12 L 117 -1 L 105 -1 L 105 -5 L 89 -5 L 89 -1 L 73 -1 L 73 -5 L 65.53600311279297 -5 L 57 -5 L 57 -1 L 45 -1 L 45 -5 L 45 -17 L 41 -17 L 41 -33 L 45 -33 L 45 -49 L 41 -49 L 41 -65 M -115.3427505493164 53.871299743652344 L -115.34270477294922 53.871360778808594 L -115.33294677734375 53.88425064086914 L -115.15435028076172 54.03150177001953 L -115.14199829101562 54.04199981689453 L -114.92900085449219 54.159000396728516 L -114.70099639892578 54.244998931884766 L -114.68800354003906 54.24739456176758 L -114.46199798583984 54.28900146484375 L -114.21900177001953 54.29800033569336 L -113.97799682617188 54.26300048828125 L -113.74500274658203 54.19300079345703 L -113.73760223388672 54.18960189819336 L -113.46495056152344 54.04615020751953 L -113.45155334472656 54.03704833984375 L -113.3290023803711 53.94300079345703 L -113.15799713134766 53.77000045776367 L -113.01499938964844 53.573001861572266 L -113.0123291015625 53.56747817993164 L -112.91429901123047 53.36494827270508 L -112.90750122070312 53.350250244140625 L -112.88738250732422 53.24800109863281 L -112.80394744873047 52.823951721191406 L -112.80175018310547 52.81610107421875 L -112.80000305175781 52.79999923706055 L -112.80175018310547 52.78390121459961 L -112.86862182617188 52.37841796875 L -112.87680053710938 52.32884979248047 L -112.93379974365234 52.18539810180664 L -112.93900299072266 52.16999816894531 L -113.01499938964844 52.027000427246094 L -113.21099853515625 51.768001556396484 L -113.38152313232422 51.623023986816406 L -113.45800018310547 51.55799865722656 L -113.73065185546875 51.41455078125 L -113.73760223388672 51.410400390625 L -113.75016021728516 51.40541076660156 L -113.75270080566406 51.40439987182617 L -113.7646484375 51.402198791503906 L -114.21495056152344 51.30244827270508 L -114.38504791259766 51.30244827270508 L -114.68800354003906 51.35262680053711 L -114.68904876708984 51.35279846191406 L -114.70099639892578 51.35499954223633 L -114.92900085449219 51.441001892089844 L -115.12005615234375 51.54594421386719 L -115.14199829101562 51.55799865722656 L -115.37664794921875 51.75749969482422 L -115.38604736328125 51.76525115966797 L -115.52950286865234 51.94670104980469 L -115.54000091552734 51.95899963378906 L -115.66100311279297 52.16999816894531 L -115.75980377197266 52.46260070800781 L -115.7656478881836 52.481998443603516 L -115.79889678955078 52.787899017333984 L -115.80000305175781 52.79999923706055 L -115.79145050048828 52.95389938354492 L -115.78970336914062 52.970001220703125 L -115.76499938964844 53.12200164794922 L -115.72480773925781 53.24800109863281 L -115.69100189208984 53.354000091552734 L -115.61429595947266 53.51246643066406 L -115.58499908447266 53.573001861572266 L -115.49855041503906 53.70124816894531 L -115.3427505493164 53.871299743652344 M -77.86000061035156 -27.54199981689453 L -77.8239974975586 -27.558629989624023 L -77.66300201416016 -27.632999420166016 L -77.47799682617188 -27.7450008392334 L -77.30500030517578 -27.875999450683594 L -77.14800262451172 -28.024999618530273 L -77.00800323486328 -28.190000534057617 L -76.88600158691406 -28.368999481201172 L -76.78500366210938 -28.559999465942383 L -76.74042510986328 -28.672000885009766 L -76.70500183105469 -28.76099967956543 L -76.64700317382812 -28.969999313354492 L -76.61199951171875 -29.18400001525879 L -76.5999984741211 -29.399999618530273 L -76.61199951171875 -29.615999221801758 L -76.64700317382812 -29.829999923706055 L -76.70500183105469 -30.038999557495117 L -76.78500366210938 -30.239999771118164 L -76.88600158691406 -30.430999755859375 L -77.00800323486328 -30.610000610351562 L -77.14800262451172 -30.774999618530273 L -77.30500030517578 -30.923999786376953 L -77.47799682617188 -31.05500030517578 L -77.66300201416016 -31.16699981689453 L -77.8239974975586 -31.241371154785156 L -77.86000061035156 -31.257999420166016 L -78.06500244140625 -31.32699966430664 L -78.2760009765625 -31.374000549316406 L -78.49199676513672 -31.39699935913086 L -78.70800018310547 -31.39699935913086 L -78.92400360107422 -31.374000549316406 L -79.13500213623047 -31.32699966430664 L -79.33999633789062 -31.257999420166016 L -79.53700256347656 -31.16699981689453 L -79.72200012207031 -31.05500030517578 L -79.8949966430664 -30.923999786376953 L -80.052001953125 -30.774999618530273 L -80.09866333007812 -30.719999313354492 L -80.19200134277344 -30.610000610351562 L -80.31400299072266 -30.430999755859375 L -80.41500091552734 -30.239999771118164 L -80.49500274658203 -30.038999557495117 L -80.5530014038086 -29.829999923706055 L -80.58799743652344 -29.615999221801758 L -80.5999984741211 -29.399999618530273 L -80.58799743652344 -29.18400001525879 L -80.5530014038086 -28.969999313354492 L -80.49500274658203 -28.76099967956543 L -80.45957946777344 -28.672000885009766 L -80.41500091552734 -28.559999465942383 L -80.31400299072266 -28.368999481201172 L -80.19200134277344 -28.190000534057617 L -80.052001953125 -28.024999618530273 L -79.8949966430664 -27.875999450683594 L -79.72200012207031 -27.7450008392334 L -79.53700256347656 -27.632999420166016 L -79.33999633789062 -27.54199981689453 L -79.13500213623047 -27.472999572753906 L -78.92400360107422 -27.426000595092773 L -78.70800018310547 -27.402999877929688 L -78.49199676513672 -27.402999877929688 L -78.2760009765625 -27.426000595092773 L -78.06500244140625 -27.472999572753906 L -77.86000061035156 -27.54199981689453 M -3 -67.5 L 0 -67.5 L 3 -67.5 L 3.1080000400543213 -67.50599670410156 L 3.319000005722046 -67.552001953125 L 3.388274669647217 -67.58399963378906 L 3.5160000324249268 -67.64299774169922 L 3.687999963760376 -67.77400207519531 L 3.828000068664551 -67.93900299072266 L 3.928999900817871 -68.12999725341797 L 3.986999988555908 -68.33799743652344 L 3.999000072479248 -68.55400085449219 L 3.9639999866485596 -68.76799774169922 L 3.884000062942505 -68.96800231933594 L 3.76200008392334 -69.14700317382812 L 3.6050000190734863 -69.2959976196289 L 3.4200000762939453 -69.40799713134766 L 3.2149999141693115 -69.47699737548828 L 3 -69.5 L 0 -69.5 L -3 -69.5 L -3.1080000400543213 -69.49400329589844 L -3.319000005722046 -69.447998046875 L -3.5160000324249268 -69.35700225830078 L -3.687999963760376 -69.22599792480469 L -3.828000068664551 -69.06099700927734 L -3.928999900817871 -68.87000274658203 L -3.986999988555908 -68.66200256347656 L -3.999000072479248 -68.44599914550781 L -3.9639999866485596 -68.23200225830078 L -3.884000062942505 -68.03199768066406 L -3.76200008392334 -67.85299682617188 L -3.6050000190734863 -67.7040023803711 L -3.4200000762939453 -67.59200286865234 L -3.3962318897247314 -67.58399963378906 L -3.2149999141693115 -67.52300262451172 L -3 -67.5 M 26.5 -43.007999420166016 L 26.5 -40.959999084472656 L 26.5 -38.9119987487793 L 26.5 -38 L 26.506000518798828 -37.891998291015625 L 26.552000045776367 -37.680999755859375 L 26.624000549316406 -37.52513122558594 L 26.64299964904785 -37.48400115966797 L 26.77400016784668 -37.3120002746582 L 26.93899917602539 -37.172000885009766 L 27.1299991607666 -37.07099914550781 L 27.33799934387207 -37.01300048828125 L 27.554000854492188 -37.000999450683594 L 27.76799964904785 -37.0359992980957 L 27.968000411987305 -37.11600112915039 L 28.14699935913086 -37.237998962402344 L 28.29599952697754 -37.39500045776367 L 28.408000946044922 -37.58000183105469 L 28.476999282836914 -37.78499984741211 L 28.5 -38 L 28.5 -38.9119987487793 L 28.5 -40.959999084472656 L 28.5 -43.007999420166016 L 28.5 -44 L 28.493999481201172 -44.108001708984375 L 28.447999954223633 -44.319000244140625 L 28.35700035095215 -44.51599884033203 L 28.22599983215332 -44.6879997253418 L 28.06100082397461 -44.827999114990234 L 27.8700008392334 -44.92900085449219 L 27.66200065612793 -44.98699951171875 L 27.445999145507812 -44.999000549316406 L 27.23200035095215 -44.9640007019043 L 27.031999588012695 -44.88399887084961 L 26.85300064086914 -44.762001037597656 L 26.70400047302246 -44.60499954223633 L 26.624000549316406 -44.47285842895508 L 26.591999053955078 -44.41999816894531 L 26.523000717163086 -44.21500015258789 L 26.5 -44 L 26.5 -43.007999420166016 M -80.58799743652344 -72.76599884033203 L -80.5999984741211 -72.55000305175781 L -80.58799743652344 -72.33399963378906 L -80.5530014038086 -72.12000274658203 L -80.49500274658203 -71.91100311279297 L -80.41500091552734 -71.70999908447266 L -80.39913940429688 -71.68000030517578 L -80.31400299072266 -71.51899719238281 L -80.19200134277344 -71.33999633789062 L -80.052001953125 -71.17500305175781 L -79.8949966430664 -71.0260009765625 L -79.72200012207031 -70.8949966430664 L -79.53700256347656 -70.78299713134766 L -79.33999633789062 -70.69200134277344 L -79.13500213623047 -70.62300109863281 L -78.92400360107422 -70.57599639892578 L -78.70800018310547 -70.5530014038086 L -78.49199676513672 -70.5530014038086 L -78.2760009765625 -70.57599639892578 L -78.06500244140625 -70.62300109863281 L -77.86000061035156 -70.69200134277344 L -77.8239974975586 -70.70862579345703 L -77.66300201416016 -70.78299713134766 L -77.47799682617188 -70.8949966430664 L -77.30500030517578 -71.0260009765625 L -77.14800262451172 -71.17500305175781 L -77.00800323486328 -71.33999633789062 L -76.88600158691406 -71.51899719238281 L -76.80086517333984 -71.68000030517578 L -76.78500366210938 -71.70999908447266 L -76.70500183105469 -71.91100311279297 L -76.64700317382812 -72.12000274658203 L -76.61199951171875 -72.33399963378906 L -76.5999984741211 -72.55000305175781 L -76.61199951171875 -72.76599884033203 L -76.64700317382812 -72.9800033569336 L -76.70500183105469 -73.18900299072266 L -76.78500366210938 -73.38999938964844 L -76.88600158691406 -73.58100128173828 L -76.98619079589844 -73.72799682617188 L -77.00800323486328 -73.76000213623047 L -77.14800262451172 -73.92500305175781 L -77.30500030517578 -74.0739974975586 L -77.47799682617188 -74.20500183105469 L -77.66300201416016 -74.31700134277344 L -77.8239974975586 -74.39137268066406 L -77.86000061035156 -74.40799713134766 L -78.06500244140625 -74.47699737548828 L -78.2760009765625 -74.52400207519531 L -78.49199676513672 -74.5469970703125 L -78.70800018310547 -74.5469970703125 L -78.92400360107422 -74.52400207519531 L -79.13500213623047 -74.47699737548828 L -79.33999633789062 -74.40799713134766 L -79.53700256347656 -74.31700134277344 L -79.72200012207031 -74.20500183105469 L -79.8949966430664 -74.0739974975586 L -80.052001953125 -73.92500305175781 L -80.19200134277344 -73.76000213623047 L -80.21381378173828 -73.72799682617188 L -80.31400299072266 -73.58100128173828 L -80.41500091552734 -73.38999938964844 L -80.49500274658203 -73.18900299072266 L -80.5530014038086 -72.9800033569336 L -80.58799743652344 -72.76599884033203 M 3.76200008392334 -14.147000312805176 L 3.6050000190734863 -14.295999526977539 L 3.538928508758545 -14.336000442504883 L 3.4200000762939453 -14.407999992370605 L 3.2149999141693115 -14.47700023651123 L 3 -14.5 L 0 -14.5 L -3 -14.5 L -3.1080000400543213 -14.494000434875488 L -3.319000005722046 -14.447999954223633 L -3.5160000324249268 -14.357000350952148 L -3.543572425842285 -14.336000442504883 L -3.687999963760376 -14.22599983215332 L -3.828000068664551 -14.060999870300293 L -3.928999900817871 -13.869999885559082 L -3.986999988555908 -13.661999702453613 L -3.999000072479248 -13.446000099182129 L -3.9639999866485596 -13.232000350952148 L -3.884000062942505 -13.031999588012695 L -3.76200008392334 -12.852999687194824 L -3.6050000190734863 -12.704000473022461 L -3.4200000762939453 -12.592000007629395 L -3.2149999141693115 -12.52299976348877 L -3 -12.5 L 0 -12.5 L 3 -12.5 L 3.1080000400543213 -12.505999565124512 L 3.319000005722046 -12.552000045776367 L 3.5160000324249268 -12.642999649047852 L 3.687999963760376 -12.77400016784668 L 3.828000068664551 -12.939000129699707 L 3.928999900817871 -13.130000114440918 L 3.986999988555908 -13.338000297546387 L 3.999000072479248 -13.553999900817871 L 3.9639999866485596 -13.767999649047852 L 3.884000062942505 -13.968000411987305 L 3.76200008392334 -14.147000312805176 M -28.476999282836914 -44.21500015258789 L -28.5 -44 L -28.5 -43.007999420166016 L -28.5 -40.959999084472656 L -28.5 -38.9119987487793 L -28.5 -38 L -28.493999481201172 -37.891998291015625 L -28.447999954223633 -37.680999755859375 L -28.35700035095215 -37.48400115966797 L -28.22599983215332 -37.3120002746582 L -28.06100082397461 -37.172000885009766 L -27.8700008392334 -37.07099914550781 L -27.66200065612793 -37.01300048828125 L -27.656600952148438 -37.01240158081055 L -27.451400756835938 -37.000999450683594 L -27.445999145507812 -37.000999450683594 L -27.23200035095215 -37.0359992980957 L -27.031999588012695 -37.11600112915039 L -26.85300064086914 -37.237998962402344 L -26.70400047302246 -37.39500045776367 L -26.624000549316406 -37.52714157104492 L -26.591999053955078 -37.58000183105469 L -26.523000717163086 -37.78499984741211 L -26.5 -38 L -26.5 -38.9119987487793 L -26.5 -40.959999084472656 L -26.5 -43.007999420166016 L -26.5 -44 L -26.506000518798828 -44.108001708984375 L -26.552000045776367 -44.319000244140625 L -26.624000549316406 -44.47486877441406 L -26.64299964904785 -44.51599884033203 L -26.77400016784668 -44.6879997253418 L -26.93899917602539 -44.827999114990234 L -27.1299991607666 -44.92900085449219 L -27.33799934387207 -44.98699951171875 L -27.554000854492188 -44.999000549316406 L -27.76799964904785 -44.9640007019043 L -27.968000411987305 -44.88399887084961 L -28.14699935913086 -44.762001037597656 L -28.29599952697754 -44.60499954223633 L -28.408000946044922 -44.41999816894531 L -28.476999282836914 -44.21500015258789 M -115.79045104980469 27.343799591064453 L -115.79100036621094 27.36199951171875 L -115.74299621582031 27.60099983215332 L -115.66100311279297 27.829999923706055 L -115.54000091552734 28.041000366210938 L -115.38899993896484 28.23200035095215 L -115.14199829101562 28.441999435424805 L -114.92900085449219 28.55900001525879 L -114.70099639892578 28.645000457763672 L -114.68800354003906 28.64739418029785 L -114.5543441772461 28.672000885009766 L -114.46199798583984 28.68899917602539 L -114.21900177001953 28.697999954223633 L -114.03997039794922 28.672000885009766 L -113.97799682617188 28.663000106811523 L -113.74500274658203 28.593000411987305 L -113.59700012207031 28.524999618530273 L -113.39399719238281 28.392000198364258 L -113.21099853515625 28.23200035095215 L -113.11125183105469 28.114200592041016 L -113.10144805908203 28.10124969482422 L -113.09559631347656 28.088350296020508 L -112.87995147705078 27.68079948425293 L -112.83815002441406 27.53165054321289 L -112.83536529541016 27.51449203491211 L -112.8134536743164 27.379650115966797 L -112.80899810791016 27.36199951171875 L -112.80899810791016 27.038000106811523 L -112.87899780273438 26.72100067138672 L -112.921630859375 26.624000549316406 L -112.97209930419922 26.5091495513916 L -112.97889709472656 26.494449615478516 L -113.15084838867188 26.239849090576172 L -113.15799713134766 26.229999542236328 L -113.39399719238281 26.007999420166016 L -113.59700012207031 25.875 L -113.74500274658203 25.80699920654297 L -113.97799682617188 25.73699951171875 L -114.21900177001953 25.70199966430664 L -114.46199798583984 25.711000442504883 L -114.68800354003906 25.752607345581055 L -114.70099639892578 25.7549991607666 L -114.9176025390625 25.836700439453125 L -114.92530059814453 25.83930015563965 L -114.93614959716797 25.84480094909668 L -115.08769989013672 25.92804718017578 L -115.13849639892578 25.955949783325195 L -115.26104736328125 26.049999237060547 L -115.27100372314453 26.05699920654297 L -115.38310241699219 26.162450790405273 L -115.52655029296875 26.343900680541992 L -115.54000091552734 26.358999252319336 L -115.66100311279297 26.56999969482422 L -115.66400146484375 26.577550888061523 L -115.6796875 26.624000549316406 L -115.76280212402344 26.870149612426758 L -115.7657470703125 26.884000778198242 L -115.78071594238281 27.021684646606445 L -115.79900360107422 27.189899444580078 L -115.79045104980469 27.343799591064453 M 78 16 L 81.91999816894531 16 L 84 16 L 84.10800170898438 15.994000434875488 L 84.31900024414062 15.947999954223633 L 84.51599884033203 15.857000350952148 L 84.68800354003906 15.72599983215332 L 84.8280029296875 15.560999870300293 L 84.92900085449219 15.369999885559082 L 84.98699951171875 15.161999702453613 L 84.9990005493164 14.946000099182129 L 84.96399688720703 14.732000350952148 L 84.88400268554688 14.531999588012695 L 84.76200103759766 14.352999687194824 L 84.74408721923828 14.336000442504883 L 84.6050033569336 14.204000473022461 L 84.41999816894531 14.092000007629395 L 84.21499633789062 14.02299976348877 L 84 14 L 81.91999816894531 14 L 78 14 L 77.89199829101562 14.005999565124512 L 77.8239974975586 14.020824432373047 L 77.68099975585938 14.052000045776367 L 77.48400115966797 14.142999649047852 L 77.31199645996094 14.27400016784668 L 77.1719970703125 14.439000129699707 L 77.07099914550781 14.630000114440918 L 77.01300048828125 14.838000297546387 L 77.0009994506836 15.053999900817871 L 77.03600311279297 15.267999649047852 L 77.11599731445312 15.468000411987305 L 77.23799896240234 15.647000312805176 L 77.3949966430664 15.795999526977539 L 77.58000183105469 15.907999992370605 L 77.78500366210938 15.97700023651123 L 77.8239974975586 15.981172561645508 L 78 16 M 105.02300262451172 36.78499984741211 L 105 37 L 105 40.959999084472656 L 105 43 L 105.00599670410156 43.108001708984375 L 105.052001953125 43.319000244140625 L 105.14299774169922 43.51599884033203 L 105.27400207519531 43.6879997253418 L 105.43900299072266 43.827999114990234 L 105.62999725341797 43.92900085449219 L 105.83799743652344 43.98699951171875 L 105.94059753417969 43.9984016418457 L 105.95140075683594 43.999000549316406 L 106.05400085449219 43.999000549316406 L 106.26799774169922 43.9640007019043 L 106.46800231933594 43.88399887084961 L 106.49600219726562 43.86491775512695 L 106.64700317382812 43.762001037597656 L 106.7959976196289 43.60499954223633 L 106.90799713134766 43.41999816894531 L 106.97699737548828 43.21500015258789 L 107 43 L 107 40.959999084472656 L 107 37 L 106.99400329589844 36.891998291015625 L 106.947998046875 36.680999755859375 L 106.85700225830078 36.48400115966797 L 106.72599792480469 36.3120002746582 L 106.56099700927734 36.172000885009766 L 106.49600219726562 36.13762664794922 L 106.37000274658203 36.07099914550781 L 106.16200256347656 36.01300048828125 L 105.94599914550781 36.000999450683594 L 105.73200225830078 36.0359992980957 L 105.53199768066406 36.11600112915039 L 105.35299682617188 36.237998962402344 L 105.2040023803711 36.39500045776367 L 105.09200286865234 36.58000183105469 L 105.02300262451172 36.78499984741211 M -64.3499984741211 53.625648498535156 L -64.3395004272461 53.645198822021484 L -64.13999938964844 53.87984848022461 L -64.13200378417969 53.888999938964844 L -64.00800323486328 53.99399948120117 L -63.801998138427734 54.12300109863281 L -63.500999450683594 54.24300003051758 L -63.262001037597656 54.29100036621094 L -63.099998474121094 54.29999923706055 L -61.439998626708984 54.29999923706055 L -60.099998474121094 54.29999923706055 L -59.858001708984375 54.27799987792969 L -59.62099838256836 54.22100067138672 L -59.39799880981445 54.12300109863281 L -59.202301025390625 54.000450134277344 L -59.18024826049805 53.98284912109375 L -58.957000732421875 53.770999908447266 L -58.82400131225586 53.58195114135742 L -58.81489944458008 53.56855010986328 L -58.71039962768555 53.36240005493164 L -58.707000732421875 53.35499954223633 L -58.67485427856445 53.24800109863281 L -58.637001037597656 53.12200164794922 L -58.60200119018555 52.88100051879883 L -58.611000061035156 52.63800048828125 L -58.654998779296875 52.39899826049805 L -58.707000732421875 52.244998931884766 L -58.81700134277344 52.02799987792969 L -58.957000732421875 51.82899856567383 L -58.974571228027344 51.8116340637207 L -59.1213493347168 51.66654968261719 L -59.13309860229492 51.655399322509766 L -59.59954833984375 51.390350341796875 L -59.606300354003906 51.385799407958984 L -59.62099838256836 51.37900161743164 L -59.858001708984375 51.321998596191406 L -60.099998474121094 51.29999923706055 L -61.439998626708984 51.29999923706055 L -63.099998474121094 51.29999923706055 L -63.422000885009766 51.334999084472656 L -63.72999954223633 51.43899917602539 L -64.00800323486328 51.60599899291992 L -64.24299621582031 51.82899856567383 L -64.38300323486328 52.02799987792969 L -64.49299621582031 52.244998931884766 L -64.54499816894531 52.39899826049805 L -64.58899688720703 52.63800048828125 L -64.59385681152344 52.76913833618164 L -64.5979995727539 52.88100051879883 L -64.54765319824219 53.185001373291016 L -64.5467529296875 53.19309997558594 L -64.5428466796875 53.20669937133789 L -64.52643585205078 53.24800109863281 L -64.4513931274414 53.43686294555664 L -64.42884826660156 53.49359893798828 L -64.3499984741211 53.625648498535156 M 98.0790023803711 -64.52899932861328 L 98.04944610595703 -64.40611267089844 L 98.02484893798828 -64.30384826660156 L 98.02134704589844 -64.28800201416016 L 98.01944732666016 -63.8661994934082 L 98.01899719238281 -63.85810089111328 L 98.020751953125 -63.84199905395508 L 98.07679748535156 -63.57884979248047 L 98.08049774169922 -63.5672492980957 L 98.20970153808594 -63.28794860839844 L 98.21955108642578 -63.27024841308594 L 98.30400085449219 -63.15865707397461 L 98.40574645996094 -63.024200439453125 L 98.4155502319336 -63.013999938964844 L 98.5974349975586 -62.85935974121094 L 98.65019989013672 -62.81449890136719 L 98.7822494506836 -62.73564910888672 L 98.80069732666016 -62.72330093383789 L 99.08760070800781 -62.60929870605469 L 99.0989990234375 -62.60499954223633 L 99.33799743652344 -62.56100082397461 L 99.58100128173828 -62.551998138427734 L 99.74299621582031 -62.56999969482422 L 99.97799682617188 -62.63100051879883 L 100.2030029296875 -62.724998474121094 L 100.33505249023438 -62.80384826660156 L 100.34844970703125 -62.812950134277344 L 100.47100067138672 -62.90700149536133 L 100.64199829101562 -63.08000183105469 L 100.822998046875 -63.347999572753906 L 100.884521484375 -63.487998962402344 L 100.9209976196289 -63.57099914550781 L 100.92320251464844 -63.57884979248047 L 100.98970031738281 -63.880001068115234 L 100.99144744873047 -63.89609909057617 L 101 -64.05000305175781 L 100.97799682617188 -64.29199981689453 L 100.9209976196289 -64.52899932861328 L 100.822998046875 -64.75199890136719 L 100.69400024414062 -64.95800018310547 L 100.58899688720703 -65.08200073242188 L 100.40599822998047 -65.24199676513672 L 100.35199737548828 -65.27738189697266 L 100.2030029296875 -65.375 L 99.87715148925781 -65.4937515258789 L 99.8697509765625 -65.49714660644531 L 99.8541488647461 -65.50150299072266 L 99.65361785888672 -65.53600311279297 L 99.58910369873047 -65.5470962524414 L 99.57695007324219 -65.5479965209961 L 99.36094665527344 -65.53600311279297 L 99.26914978027344 -65.53089904785156 L 99.25700378417969 -65.52999877929688 L 99.0989990234375 -65.49500274658203 L 98.87100219726562 -65.40899658203125 L 98.65799713134766 -65.29199981689453 L 98.65155029296875 -65.28704833984375 L 98.47918701171875 -65.14051055908203 L 98.41690063476562 -65.0875473022461 L 98.31714630126953 -64.9697494506836 L 98.30599975585938 -64.95800018310547 L 98.30400085449219 -64.95480346679688 L 98.177001953125 -64.75199890136719 L 98.0790023803711 -64.52899932861328 M 84.9990005493164 64.94599914550781 L 84.96399688720703 64.73200225830078 L 84.88400268554688 64.53199768066406 L 84.76200103759766 64.35299682617188 L 84.6050033569336 64.2040023803711 L 84.41999816894531 64.09200286865234 L 84.21499633789062 64.02300262451172 L 84 64 L 81.91999816894531 64 L 78 64 L 77.89199829101562 64.00599670410156 L 77.68099975585938 64.052001953125 L 77.48400115966797 64.14299774169922 L 77.31199645996094 64.27400207519531 L 77.1719970703125 64.43900299072266 L 77.07099914550781 64.62999725341797 L 77.01300048828125 64.83799743652344 L 77.0009994506836 65.05400085449219 L 77.03600311279297 65.26799774169922 L 77.11599731445312 65.46800231933594 L 77.16234588623047 65.53600311279297 L 77.23799896240234 65.64700317382812 L 77.3949966430664 65.7959976196289 L 77.58000183105469 65.90799713134766 L 77.78500366210938 65.97699737548828 L 78 66 L 84 66 L 84.10800170898438 65.99400329589844 L 84.31900024414062 65.947998046875 L 84.51599884033203 65.85700225830078 L 84.68800354003906 65.72599792480469 L 84.8280029296875 65.56099700927734 L 84.84121704101562 65.53600311279297 L 84.92900085449219 65.37000274658203 L 84.98699951171875 65.16200256347656 L 84.9990005493164 64.94599914550781 M 55.02299880981445 36.78499984741211 L 55.014549255371094 36.86399841308594 L 55 37 L 55 40.959999084472656 L 55 43 L 55.00044631958008 43.007999420166016 L 55.00600051879883 43.108001708984375 L 55.051998138427734 43.319000244140625 L 55.143001556396484 43.51599884033203 L 55.27399826049805 43.6879997253418 L 55.43899917602539 43.827999114990234 L 55.630001068115234 43.92900085449219 L 55.8380012512207 43.98699951171875 L 56.05400085449219 43.999000549316406 L 56.268001556396484 43.9640007019043 L 56.46799850463867 43.88399887084961 L 56.64699935913086 43.762001037597656 L 56.79600143432617 43.60499954223633 L 56.90800094604492 43.41999816894531 L 56.97700119018555 43.21500015258789 L 56.9991455078125 43.007999420166016 L 57 43 L 57 40.959999084472656 L 57 37 L 56.99399948120117 36.891998291015625 L 56.98789596557617 36.86399841308594 L 56.948001861572266 36.680999755859375 L 56.856998443603516 36.48400115966797 L 56.72600173950195 36.3120002746582 L 56.56100082397461 36.172000885009766 L 56.369998931884766 36.07099914550781 L 56.1619987487793 36.01300048828125 L 55.94599914550781 36.000999450683594 L 55.731998443603516 36.0359992980957 L 55.53200149536133 36.11600112915039 L 55.35300064086914 36.237998962402344 L 55.20399856567383 36.39500045776367 L 55.09199905395508 36.58000183105469 L 55.02299880981445 36.78499984741211 M -64.58550262451172 27.022199630737305 L -64.58854675292969 27.033950805664062 L -64.58944702148438 27.05014991760254 L -64.58090209960938 27.434900283813477 L -64.58000183105469 27.44300079345703 L -64.51899719238281 27.67799949645996 L -64.42500305175781 27.902999877929688 L -64.24299621582031 28.17099952697754 L -64.06999969482422 28.341999053955078 L -63.9764404296875 28.409915924072266 L -63.87300109863281 28.485000610351562 L -63.72999954223633 28.56100082397461 L -63.33039855957031 28.672000885009766 L -63.285400390625 28.684499740600586 L -63.27785110473633 28.6875 L -63.27000045776367 28.689699172973633 L -63.25389862060547 28.691450119018555 L -63.099998474121094 28.700000762939453 L -60.099998474121094 28.700000762939453 L -59.858001708984375 28.67799949645996 L -59.83305358886719 28.672000885009766 L -59.62099838256836 28.621000289916992 L -59.4775505065918 28.56399917602539 L -59.46284866333008 28.557199478149414 L -59.32699966430664 28.485000610351562 L -59.130001068115234 28.341999053955078 L -58.957000732421875 28.17099952697754 L -58.95000076293945 28.16105079650879 L -58.80341339111328 27.9451961517334 L -58.777099609375 27.906450271606445 L -58.712501525878906 27.765850067138672 L -58.707000732421875 27.7549991607666 L -58.637001037597656 27.52199935913086 L -58.60200119018555 27.2810001373291 L -58.611000061035156 27.038000106811523 L -58.64948654174805 26.828950881958008 L -58.654998779296875 26.798999786376953 L -58.72453689575195 26.624000549316406 L -58.76900100708008 26.512100219726562 L -58.77330017089844 26.500699996948242 L -58.89965057373047 26.307849884033203 L -58.90549850463867 26.297199249267578 L -59.057498931884766 26.123350143432617 L -59.06800079345703 26.111000061035156 L -59.24945068359375 25.96755027770996 L -59.26240158081055 25.95775032043457 L -59.378448486328125 25.891199111938477 L -59.46284866333008 25.84280014038086 L -59.606300354003906 25.78580093383789 L -59.62099838256836 25.77899932861328 L -59.858001708984375 25.722000122070312 L -60.099998474121094 25.700000762939453 L -61.439998626708984 25.700000762939453 L -62.80739974975586 25.700000762939453 L -63.099998474121094 25.700000762939453 L -63.40589904785156 25.73324966430664 L -63.41400146484375 25.733699798583984 L -63.42985153198242 25.737199783325195 L -63.57899856567383 25.77899932861328 L -63.801998138427734 25.87700080871582 L -64.00800323486328 26.006000518798828 L -64.01419830322266 26.011249542236328 L -64.26876068115234 26.279529571533203 L -64.33149719238281 26.34564971923828 L -64.3395004272461 26.354799270629883 L -64.45065307617188 26.55714988708496 L -64.4572982788086 26.56730079650879 L -64.46199798583984 26.578550338745117 L -64.47914123535156 26.624000549316406 L -64.4887466430664 26.649456024169922 L -64.543701171875 26.795150756835938 L -64.58550262451172 27.022199630737305 M 110.69425201416016 -65.07579803466797 L 110.59200286865234 -65.16273498535156 L 110.45960235595703 -65.27529907226562 L 110.44844818115234 -65.28704833984375 L 110.44200134277344 -65.29199981689453 L 110.22899627685547 -65.40899658203125 L 110.0009994506836 -65.49500274658203 L 109.7782974243164 -65.53600311279297 L 109.76200103759766 -65.53900146484375 L 109.51899719238281 -65.5479965209961 L 109.43637084960938 -65.53600311279297 L 109.27799987792969 -65.51300048828125 L 109.04499816894531 -65.44300079345703 L 108.97832489013672 -65.41236114501953 L 108.89700317382812 -65.375 L 108.70414733886719 -65.24864959716797 L 108.69719696044922 -65.24449920654297 L 108.68779754638672 -65.23674774169922 L 108.55506134033203 -65.12068939208984 L 108.54399871826172 -65.11102294921875 L 108.51394653320312 -65.08474731445312 L 108.41419982910156 -64.96694946289062 L 108.40599822998047 -64.95800018310547 L 108.2770004272461 -64.75199890136719 L 108.17900085449219 -64.52899932861328 L 108.12200164794922 -64.29199981689453 L 108.0999984741211 -64.05000305175781 L 108.10900115966797 -63.88800048828125 L 108.17900085449219 -63.57099914550781 L 108.2154769897461 -63.487998962402344 L 108.2770004272461 -63.347999572753906 L 108.45800018310547 -63.08000183105469 L 108.62899780273438 -62.90700149536133 L 108.89700317382812 -62.724998474121094 L 109.18389892578125 -62.611000061035156 L 109.20294952392578 -62.60409927368164 L 109.50695037841797 -62.553749084472656 L 109.51899719238281 -62.551998138427734 L 109.76200103759766 -62.56100082397461 L 110.0009994506836 -62.60499954223633 L 110.3030014038086 -62.724998474121094 L 110.50599670410156 -62.858001708984375 L 110.59200286865234 -62.933189392089844 L 110.67984771728516 -63.0099983215332 L 110.691650390625 -63.02109909057617 L 110.87785339355469 -63.26715087890625 L 110.88500213623047 -63.277000427246094 L 110.99099731445312 -63.49599838256836 L 111.06500244140625 -63.72800064086914 L 111.0999984741211 -64.05000305175781 L 111.0780029296875 -64.29199981689453 L 111.02100372314453 -64.52899932861328 L 110.9229965209961 -64.75199890136719 L 110.8586196899414 -64.85480499267578 L 110.79399871826172 -64.95800018310547 L 110.69425201416016 -65.07579803466797 M -82.80000305175781 -34.54999923706055 L -71.44999694824219 -34.54999923706055 L -71.44999694824219 -38.79999923706055 L -82.80000305175781 -38.79999923706055 L -82.80000305175781 -34.54999923706055 M 89 -19 L 73 -19 L 73 -12 L 89 -12 L 89 -17 L 89 -19 M 103.05000305175781 -66.25 L 103.05000305175781 -65.53600311279297 L 103.05000305175781 -63.25 L 106.05000305175781 -63.25 L 106.05000305175781 -65.53600311279297 L 106.05000305175781 -65.67648315429688 L 106.05000305175781 -66.22238159179688 L 106.05000305175781 -66.25 L 103.05000305175781 -66.25 z" fill="none" stroke="rgb(0,0,255)" stroke-width="0.01mm" />
</svg>